{"glyphs":{"0":{"ha":690,"x_min":0,"x_max":0,"o":"m 14 500 b 346 7 14 179 163 7 b 676 500 528 7 676 179 b 347 997 676 824 529 997 b 14 500 164 997 14 822 z m 346 31 b 150 494 229 31 150 211 b 346 964 150 783 229 964 b 540 494 463 964 540 783 b 346 31 540 211 463 31 z "},"1":{"ha":263,"x_min":0,"x_max":0,"o":"m 1 850 b 7 844 1 846 3 844 l 69 843 b 75 836 74 843 75 840 l 75 15 b 82 10 75 11 78 10 l 201 10 b 207 15 206 10 207 11 l 207 989 b 201 996 207 993 206 996 l 190 996 b 188 994 190 996 189 996 l 4 865 b 1 860 3 864 1 861 l 1 850 z "},"2":{"ha":647,"x_min":0,"x_max":0,"o":"m 6 21 b 10 10 0 17 3 10 l 594 10 b 600 15 599 10 600 11 l 600 108 b 594 115 600 113 599 115 l 190 115 b 186 126 183 115 181 122 b 576 504 300 207 476 349 b 646 724 625 576 646 651 b 321 994 646 892 476 994 b 15 814 188 994 86 925 b 19 804 11 810 15 804 l 47 804 b 53 807 49 804 51 806 b 303 963 124 914 218 963 b 519 710 421 963 519 869 b 6 21 519 413 129 122 z "},"3":{"ha":668,"x_min":0,"x_max":0,"o":"m 4 814 b 7 807 4 811 6 808 b 31 788 17 800 24 793 b 40 789 35 783 39 783 b 290 960 89 885 169 960 l 289 961 b 451 779 396 961 451 874 b 300 554 451 685 400 597 b 303 543 294 553 296 543 b 524 304 447 532 524 450 b 272 42 524 160 428 42 b 36 176 199 42 92 72 b 28 179 33 179 31 181 l 10 171 b 7 163 4 169 3 167 b 306 -4 51 75 158 -4 b 654 314 510 -4 654 147 b 424 575 654 425 583 538 b 422 586 417 576 417 585 b 568 781 522 632 568 707 b 294 996 568 890 468 996 b 4 814 153 996 44 914 z "},"4":{"ha":618,"x_min":0,"x_max":0,"o":"m 4 297 b 10 288 0 293 4 288 l 417 288 b 422 281 421 288 422 285 l 422 15 b 429 10 422 11 425 10 l 547 10 b 554 15 551 10 554 11 l 554 281 b 560 288 554 285 556 288 l 610 288 b 617 293 614 288 617 289 l 617 326 b 610 333 617 331 614 333 l 560 333 b 554 339 556 333 554 335 l 554 989 b 547 996 554 993 551 996 l 481 996 b 476 993 479 996 478 994 z m 94 333 b 89 343 89 333 85 339 l 411 817 b 422 813 415 821 422 819 l 422 339 b 417 333 422 335 421 333 z "},"5":{"ha":742,"x_min":0,"x_max":0,"o":"m 60 199 b 56 192 57 197 56 194 b 365 -6 89 58 238 -6 b 728 338 561 -6 728 132 b 374 657 728 533 565 657 b 126 582 294 657 210 633 b 117 588 122 578 117 582 l 117 869 b 124 876 117 874 119 876 l 618 876 b 625 882 622 876 625 878 l 625 975 b 618 982 625 979 622 982 l 64 982 b 57 975 60 982 57 979 l 57 503 b 68 497 57 497 64 493 b 336 600 163 568 253 600 b 594 307 485 600 594 496 b 376 31 594 179 515 42 b 92 207 261 19 128 93 b 83 211 90 211 88 213 b 60 199 74 207 67 203 z "},"6":{"ha":693,"x_min":0,"x_max":0,"o":"m 14 411 b 351 -4 14 201 139 -4 b 679 342 551 -4 679 174 b 389 656 679 538 538 656 b 172 549 310 656 229 621 b 161 553 168 543 160 547 b 492 974 199 779 322 956 b 497 981 496 975 497 976 l 497 994 b 490 1000 497 999 494 1000 b 14 411 258 978 14 767 z m 151 324 b 358 610 136 453 206 610 b 549 335 458 610 549 517 b 351 28 549 151 469 28 b 151 324 208 28 163 213 z "},"7":{"ha":564,"x_min":0,"x_max":0,"o":"m 8 982 b 1 975 4 982 1 979 l 1 882 b 8 876 1 878 4 876 l 467 876 b 472 867 471 876 476 871 b 81 17 282 576 142 299 b 88 10 81 13 83 10 l 235 10 b 242 15 239 10 240 11 b 560 972 271 356 408 672 b 554 982 561 979 558 982 l 8 982 z "},"8":{"ha":718,"x_min":0,"x_max":0,"o":"m 242 515 b 14 215 96 421 14 326 b 346 -3 14 71 179 -3 b 704 242 522 -3 704 79 b 450 538 704 358 576 449 b 450 547 446 542 446 546 b 624 797 561 618 624 697 b 360 996 624 929 493 996 b 69 763 215 996 69 918 b 242 526 69 674 147 597 b 242 515 246 522 246 519 z m 347 32 b 104 228 226 32 104 94 b 278 493 104 340 185 433 b 285 493 281 494 283 494 b 576 201 425 393 576 304 b 347 32 576 90 464 32 z m 196 800 b 365 961 196 906 281 961 b 543 793 454 961 543 904 b 415 567 543 693 489 622 b 407 567 413 565 410 565 b 196 800 296 644 196 717 z "},"9":{"ha":693,"x_min":0,"x_max":0,"o":"m 343 1001 b 14 656 142 1001 14 824 b 304 342 14 460 156 342 b 521 447 383 342 461 374 b 532 442 525 451 533 449 b 197 21 492 217 367 43 b 192 15 193 21 192 19 l 192 3 b 199 -4 192 -1 194 -4 b 679 590 429 18 679 239 b 343 1001 679 800 554 1001 z m 142 629 b 343 969 131 758 178 969 b 540 685 485 969 529 796 b 483 460 550 607 533 519 b 335 382 435 399 383 378 b 142 629 235 393 153 514 z "},"\u0000":{"ha":0,"x_min":0,"x_max":0,"o":""},"\r":{"ha":0,"x_min":0,"x_max":0,"o":""}," ":{"ha":442,"x_min":0,"x_max":0,"o":""},"\n":{"ha":0,"x_min":0,"x_max":0,"o":""},"A":{"ha":818,"x_min":0,"x_max":0,"o":"m 4 8 b 10 0 3 3 4 0 l 50 0 b 56 4 54 0 56 1 l 200 413 b 207 417 201 415 203 417 l 525 417 b 532 413 528 417 531 415 b 672 4 543 379 628 129 b 678 0 672 1 674 0 l 808 0 b 814 8 813 0 815 3 b 636 518 781 101 707 314 l 481 968 b 474 972 479 971 476 972 l 350 972 b 344 968 346 972 344 971 l 300 842 b 176 493 257 718 215 604 z m 229 465 b 224 474 224 465 222 468 l 361 864 b 374 864 365 869 369 869 l 508 474 b 503 465 510 468 507 465 z "},"B":{"ha":801,"x_min":0,"x_max":0,"o":"m 63 972 b 56 965 58 972 56 969 l 56 7 b 63 0 56 3 58 0 l 411 0 b 788 268 671 0 788 107 b 571 519 788 392 721 482 b 732 729 682 560 732 639 b 360 972 732 925 521 972 z m 197 50 b 190 57 193 50 190 53 l 190 482 b 197 488 190 486 193 488 l 389 488 b 647 272 551 488 647 411 b 389 50 647 132 557 50 z m 190 915 b 197 922 190 919 193 922 l 333 922 b 592 729 506 922 592 858 b 333 538 592 601 506 538 l 197 538 b 190 544 193 538 190 540 z "},"C":{"ha":897,"x_min":0,"x_max":0,"o":"m 226 903 b 14 486 82 808 14 654 b 518 -14 14 192 240 -14 b 893 169 668 -14 804 47 b 892 178 894 172 894 175 l 888 182 b 879 182 883 186 881 186 b 594 57 796 93 694 57 b 153 549 360 57 153 264 b 508 942 153 814 336 942 b 839 758 669 942 774 892 b 846 756 840 756 842 754 l 858 761 b 863 769 863 763 864 765 b 544 985 801 897 689 975 b 226 903 433 992 321 964 z "},"D":{"ha":865,"x_min":0,"x_max":0,"o":"m 63 972 b 56 965 58 972 56 969 l 56 7 b 63 0 56 3 58 0 l 342 0 b 851 486 651 0 851 206 b 339 972 851 796 635 972 z m 190 915 b 197 922 190 919 193 922 l 331 922 b 714 417 597 922 721 668 b 378 50 710 190 564 50 l 197 50 b 190 57 193 50 190 53 z "},"E":{"ha":610,"x_min":0,"x_max":0,"o":"m 56 7 b 63 0 56 3 58 0 l 601 0 b 608 7 606 0 608 3 l 608 44 b 601 50 608 49 606 50 l 197 50 b 190 57 193 50 190 53 l 190 472 b 197 478 190 476 193 478 l 515 478 b 522 485 519 478 522 481 l 522 522 b 515 528 522 526 519 528 l 196 528 b 190 535 192 528 190 531 l 190 915 b 196 922 190 919 192 922 l 601 922 b 608 928 606 922 608 924 l 608 965 b 601 972 608 969 606 972 l 63 972 b 56 965 58 972 56 969 l 56 7 z "},"F":{"ha":610,"x_min":0,"x_max":0,"o":"m 56 7 b 63 0 56 3 58 0 l 185 0 b 190 7 189 0 190 3 l 190 472 b 197 478 190 476 193 478 l 515 478 b 522 485 519 478 522 481 l 522 522 b 515 528 522 526 519 528 l 196 528 b 190 535 192 528 190 531 l 190 915 b 196 922 190 919 192 922 l 601 922 b 608 928 606 922 608 924 l 608 965 b 601 972 608 969 606 972 l 63 972 b 56 965 58 972 56 969 z "},"G":{"ha":958,"x_min":0,"x_max":0,"o":"m 504 985 b 14 486 225 985 14 769 b 518 -14 14 192 240 -14 b 899 67 588 -14 631 -4 b 903 74 901 69 903 72 l 903 456 b 896 461 903 460 900 461 l 810 461 b 788 439 794 461 788 454 l 788 108 b 785 103 788 107 786 104 b 579 40 719 60 650 40 b 153 544 317 40 153 275 b 524 943 153 761 290 943 b 825 776 646 943 765 888 b 833 774 826 772 829 772 l 853 783 b 856 793 856 786 857 789 b 504 985 782 921 649 985 z "},"H":{"ha":867,"x_min":0,"x_max":0,"o":"m 56 7 b 63 0 56 3 58 0 l 185 0 b 190 7 189 0 190 3 l 190 467 b 197 472 190 471 193 472 l 669 472 b 676 467 674 472 676 471 l 676 7 b 682 0 676 3 678 0 l 804 0 b 811 7 808 0 811 3 l 811 965 b 804 972 811 969 808 972 l 682 972 b 676 965 678 972 676 969 l 676 529 b 669 522 676 525 674 522 l 197 522 b 190 529 193 522 190 525 l 190 965 b 185 972 190 969 189 972 l 63 972 b 56 965 58 972 56 969 z "},"I":{"ha":246,"x_min":0,"x_max":0,"o":"m 56 0 l 185 0 b 190 7 189 0 190 3 l 190 967 b 183 972 190 971 188 972 l 63 972 b 56 967 58 972 56 971 z "},"J":{"ha":261,"x_min":0,"x_max":0,"o":"m -56 -97 b -47 -104 -56 -104 -53 -106 b 206 97 149 -31 206 26 l 206 965 b 200 972 206 969 204 972 l 78 972 b 71 965 74 972 71 969 l 71 93 b -21 -64 71 25 47 -14 b -53 -87 -31 -71 -42 -78 b -56 -92 -54 -87 -56 -89 z "},"K":{"ha":826,"x_min":0,"x_max":0,"o":"m 63 972 b 56 965 58 972 56 969 l 56 7 b 63 0 56 3 58 0 l 185 0 b 190 7 189 0 190 3 l 190 447 b 201 451 190 453 197 456 b 640 1 258 394 522 125 b 646 0 642 1 642 0 l 818 0 b 822 11 824 0 826 7 b 297 547 700 139 342 503 b 299 556 296 550 296 553 l 593 817 b 756 961 603 826 697 910 b 751 972 760 965 757 972 l 694 972 b 690 971 693 972 692 972 b 201 538 578 869 263 593 b 190 542 197 533 190 536 l 192 774 l 192 965 b 186 972 192 969 190 972 l 63 972 z "},"L":{"ha":610,"x_min":0,"x_max":0,"o":"m 56 7 b 63 0 56 3 58 0 l 601 0 b 608 7 606 0 608 3 l 608 44 b 601 50 608 49 606 50 l 197 50 b 190 57 193 50 190 53 l 190 968 b 185 975 190 972 189 975 l 63 975 b 56 968 58 975 56 972 z "},"M":{"ha":1115,"x_min":0,"x_max":0,"o":"m 56 7 b 63 0 56 3 58 0 l 100 0 b 106 7 104 0 106 3 l 106 807 b 118 808 106 813 114 815 l 471 4 b 476 0 472 1 474 0 l 536 0 b 542 4 538 0 540 1 l 913 828 b 925 825 917 833 925 832 l 925 7 b 931 0 925 3 926 0 l 1053 0 b 1060 7 1057 0 1060 3 l 1060 965 b 1053 972 1060 969 1057 972 l 926 972 b 921 968 922 972 921 971 l 558 164 b 547 164 557 160 549 160 l 193 968 b 188 972 192 971 189 972 l 63 972 b 57 967 58 972 57 971 b 56 233 57 804 56 435 z "},"N":{"ha":856,"x_min":0,"x_max":0,"o":"m 56 18 b 74 0 56 6 61 0 l 88 0 b 106 18 100 0 106 6 l 106 807 b 124 825 106 819 111 825 b 138 818 128 825 133 822 l 725 7 b 740 0 728 3 733 0 l 782 0 b 800 18 794 0 800 6 l 800 954 b 782 972 800 967 794 972 l 768 972 b 750 954 756 972 750 967 l 750 260 b 732 242 750 247 744 242 b 718 249 728 242 722 244 l 199 965 b 183 972 194 969 189 972 l 74 972 b 56 954 61 972 56 967 l 56 18 z "},"O":{"ha":1064,"x_min":0,"x_max":0,"o":"m 18 513 b 514 -14 7 219 208 -3 b 1046 472 821 -25 1035 178 b 551 999 1057 768 856 988 b 18 513 242 1010 29 801 z m 510 25 b 164 585 254 54 131 322 b 546 953 193 838 357 971 b 890 389 800 926 913 694 b 510 25 875 136 697 3 z "},"":{"ha":4789,"x_min":0,"x_max":0,"o":"m 942 7 b 949 0 942 3 944 0 l 1071 0 b 1076 7 1075 0 1076 3 l 1076 468 b 1085 474 1076 472 1081 478 b 1317 424 1158 442 1233 424 b 1664 714 1506 424 1664 525 b 1292 972 1664 925 1464 972 l 949 972 b 943 965 944 972 943 969 b 942 7 943 793 942 132 z m 1081 504 b 1076 510 1078 506 1076 507 l 1076 915 b 1083 922 1076 919 1079 922 l 1267 922 b 1524 711 1438 922 1524 851 b 1275 465 1524 567 1438 465 b 1081 504 1215 465 1150 478 z m 40 650 b 3 572 14 635 -3 604 b 69 504 7 538 35 510 b 153 610 126 497 171 551 b 285 558 199 597 242 579 b 288 551 288 557 289 556 b 96 10 217 351 129 110 b 101 1 94 4 96 1 l 142 1 b 147 6 143 1 146 3 l 332 525 b 342 528 333 529 338 531 b 704 175 510 431 638 286 l 763 6 b 769 1 764 3 765 1 l 899 1 b 906 10 904 1 907 4 b 728 519 872 103 797 317 b 571 969 654 735 582 936 b 565 974 571 972 569 974 l 442 974 b 435 969 438 974 436 972 l 390 843 l 365 772 b 304 597 350 728 331 668 b 296 594 301 593 299 592 b 121 656 244 617 169 644 b 40 650 94 660 67 665 z m 351 564 b 349 572 347 565 347 568 l 453 865 b 464 865 454 871 463 871 l 622 414 l 653 324 b 643 318 657 318 647 313 b 351 564 554 424 453 507 z m 1685 513 b 2181 -14 1674 219 1875 -3 b 2713 472 2488 -25 2701 178 b 2218 999 2724 768 2522 988 b 1685 513 1908 1010 1696 801 z m 2176 25 b 1831 585 1921 54 1797 322 b 2213 953 1860 838 2024 971 b 2557 389 2467 926 2579 694 b 2176 25 2542 136 2364 3 z m 2764 7 b 2771 0 2764 3 2767 0 l 3310 0 b 3317 7 3314 0 3317 3 l 3317 44 b 3310 50 3317 49 3314 50 l 2906 50 b 2899 57 2901 50 2899 53 l 2899 968 b 2893 975 2899 972 2897 975 l 2771 975 b 2764 968 2767 975 2764 972 z m 3347 7 b 3354 0 3347 3 3350 0 l 3893 0 b 3900 7 3897 0 3900 3 l 3900 44 b 3893 50 3900 49 3897 50 l 3489 50 b 3482 57 3485 50 3482 53 l 3482 968 b 3476 975 3482 972 3481 975 l 3354 975 b 3347 968 3350 975 3347 972 z m 3740 514 b 4236 -12 3729 219 3931 -1 b 4768 474 4543 -24 4757 179 b 4728 707 4772 558 4760 636 b 4365 974 4669 850 4525 974 b 4175 840 4279 974 4193 932 b 4246 738 4168 790 4192 742 b 4318 856 4304 733 4349 794 l 4318 857 b 4315 911 4296 886 4276 893 b 4378 918 4336 921 4357 924 b 4490 850 4417 908 4464 882 b 4499 840 4494 849 4497 844 l 4503 835 b 4613 390 4592 735 4625 581 b 4519 138 4606 285 4571 199 b 4232 25 4447 49 4343 13 b 3886 586 3976 54 3853 324 b 4197 953 3913 803 4039 938 b 4243 989 4213 968 4228 979 b 4239 1000 4249 993 4246 1000 b 3740 514 3947 996 3751 793 z "},"Q":{"ha":1054,"x_min":0,"x_max":0,"o":"m 15 496 b 496 -12 11 215 201 3 l 500 -15 b 869 -267 613 -172 740 -262 b 1032 -224 924 -268 978 -254 b 1036 -217 1035 -222 1036 -221 l 1035 -214 b 1026 -208 1035 -210 1032 -207 b 931 -226 997 -221 965 -226 b 643 -11 825 -222 732 -150 b 647 -1 639 -7 640 -3 b 1038 476 875 43 1033 229 b 535 986 1044 768 835 982 b 15 496 224 993 22 781 z m 494 32 b 163 593 238 69 125 335 b 553 940 200 838 364 969 b 886 379 813 903 924 635 b 494 32 849 132 685 6 z "},"R":{"ha":775,"x_min":0,"x_max":0,"o":"m 57 736 b 56 7 57 476 56 144 b 63 0 56 3 58 0 l 185 0 b 190 7 189 0 190 3 l 190 476 b 196 482 190 481 192 482 l 217 482 b 511 125 342 319 429 218 b 606 25 551 76 583 46 b 747 -36 676 -37 706 -36 l 843 -36 b 850 -29 847 -36 850 -33 l 850 -18 b 843 -12 850 -14 847 -12 b 693 89 789 -8 753 13 l 554 274 l 400 472 b 404 482 396 476 399 482 b 764 728 571 486 764 525 b 392 972 764 932 554 972 l 63 972 b 57 965 58 972 57 969 z m 190 915 b 197 922 190 919 193 922 l 367 922 b 624 728 538 922 624 857 b 367 532 624 600 540 532 l 197 532 b 190 539 193 532 190 535 z "},"S":{"ha":690,"x_min":0,"x_max":0,"o":"m 6 257 b 1 250 3 257 1 254 b 379 -14 50 65 196 -14 b 553 26 439 -14 499 -3 b 686 221 625 65 681 138 b 611 410 690 292 657 358 b 443 532 563 461 504 499 b 263 638 382 565 319 594 b 188 714 235 660 208 682 b 167 818 169 746 157 783 b 358 940 185 903 282 940 b 617 754 475 940 579 865 b 625 751 618 751 621 750 l 633 754 b 636 761 636 756 638 757 b 347 988 597 896 492 988 b 44 804 231 988 78 925 b 103 590 24 726 53 650 b 286 453 151 531 219 490 b 481 329 354 415 424 381 b 553 221 514 300 543 264 b 517 96 563 176 549 128 b 339 33 474 50 400 33 b 26 260 194 33 71 121 b 18 264 25 264 22 265 b 6 257 14 260 10 261 z "},"T":{"ha":842,"x_min":0,"x_max":0,"o":"m 1 932 b 7 926 1 928 3 926 l 347 926 b 353 919 351 926 353 924 l 353 7 b 360 0 353 3 356 0 l 482 0 b 488 7 486 0 488 3 l 488 15 b 486 921 488 233 486 736 b 493 926 486 925 489 926 l 833 926 b 840 932 838 926 840 928 l 840 963 b 833 969 840 965 838 968 b 188 972 710 969 338 972 l 7 972 b 1 965 3 972 1 969 l 1 932 z "},"U":{"ha":832,"x_min":0,"x_max":0,"o":"m 63 972 b 56 965 58 972 56 969 l 56 393 b 425 -14 56 108 231 -14 b 776 388 629 -14 776 115 l 776 965 b 769 972 776 969 774 972 l 732 972 b 726 965 728 972 726 969 l 726 376 b 453 35 726 149 610 35 b 190 375 304 35 190 131 l 190 965 b 185 972 190 969 189 972 l 63 972 z "},"V":{"ha":804,"x_min":0,"x_max":0,"o":"m 10 972 b 4 964 4 972 3 969 l 339 4 b 346 0 340 1 342 0 l 453 0 b 458 4 457 0 458 1 l 800 964 b 793 972 801 969 799 972 l 754 972 b 749 968 750 972 749 971 b 451 128 682 785 490 232 b 439 128 447 122 443 122 l 146 968 b 140 972 146 971 144 972 l 10 972 z "},"W":{"ha":1250,"x_min":0,"x_max":0,"o":"m 10 972 b 4 964 4 972 3 969 b 338 4 89 722 315 64 b 343 0 338 1 339 0 l 451 0 b 457 4 453 0 456 1 l 619 457 b 631 457 621 463 629 463 l 788 4 b 793 0 788 1 789 0 l 903 0 b 908 4 904 0 907 1 l 1246 964 b 1240 972 1247 969 1244 972 l 1201 972 b 1196 968 1197 972 1196 971 b 900 128 1124 761 939 228 b 889 128 899 122 890 122 b 597 968 856 226 681 736 b 590 972 596 971 593 972 l 463 972 b 456 964 456 972 454 969 l 597 553 b 597 549 599 551 599 550 l 449 128 b 438 128 447 122 439 122 l 146 968 b 140 972 146 971 144 972 l 10 972 z "},"X":{"ha":683,"x_min":0,"x_max":0,"o":"m 11 972 b 4 963 6 972 3 969 b 286 454 88 813 264 488 b 285 449 286 451 286 450 l 13 10 b 17 0 8 6 13 0 l 64 0 b 68 3 67 0 68 1 b 310 392 136 107 281 340 b 321 390 313 394 317 394 l 532 3 b 538 0 533 1 536 0 l 674 0 b 679 10 679 0 683 6 b 399 522 601 154 419 490 b 399 528 397 524 397 526 l 663 963 b 657 972 667 967 663 972 l 608 972 b 604 969 606 972 604 971 b 375 588 542 869 401 636 b 364 588 371 583 368 583 l 153 969 b 147 972 151 971 149 972 l 11 972 z "},"Y":{"ha":715,"x_min":0,"x_max":0,"o":"m 10 972 b 4 963 6 972 3 969 b 285 450 86 814 274 474 l 285 447 l 285 7 b 292 0 285 3 288 0 l 414 0 b 419 7 418 0 419 3 l 419 454 b 421 457 419 456 419 456 b 711 963 438 479 640 842 b 706 972 715 967 710 972 l 657 972 b 651 969 656 972 653 971 l 403 532 b 392 532 399 528 396 528 l 153 969 b 147 972 153 971 151 972 l 10 972 z "},"Z":{"ha":719,"x_min":0,"x_max":0,"o":"m 4 10 b 8 0 0 6 4 0 l 668 0 b 675 7 672 0 675 3 l 675 50 l 194 50 b 189 60 189 50 185 56 l 715 963 b 710 972 717 969 714 972 l 63 972 b 56 965 58 972 56 969 l 56 928 b 63 922 56 924 58 922 l 524 922 b 529 913 528 922 531 919 l 4 10 z "},"a":{"ha":693,"x_min":0,"x_max":0,"o":"m 503 475 b 14 172 357 368 14 381 b 226 -3 14 61 103 -3 b 508 111 332 -3 431 39 l 511 113 l 511 7 b 517 0 511 3 513 0 l 631 0 b 638 7 635 0 638 3 l 638 425 b 542 694 638 514 635 646 b 342 726 485 726 404 736 b 100 619 250 714 169 678 b 97 614 99 618 97 615 l 97 550 b 110 546 97 543 106 540 b 383 676 165 631 282 696 b 506 481 478 658 501 565 b 503 475 506 479 504 476 z m 157 175 b 497 428 157 342 360 346 b 507 422 501 432 507 428 l 507 171 b 506 167 507 169 507 168 b 286 49 443 83 364 49 b 157 175 207 49 157 92 z "},"b":{"ha":765,"x_min":0,"x_max":0,"o":"m 63 1044 b 56 1039 58 1044 56 1043 l 56 75 b 58 69 56 74 57 71 b 374 -11 147 21 263 -11 b 751 349 588 -11 751 131 b 394 711 751 560 601 711 b 197 651 329 711 249 692 b 188 656 193 647 188 650 l 188 1039 b 182 1044 188 1043 186 1044 z m 189 118 b 188 122 188 119 188 121 l 188 582 b 189 586 188 583 188 585 b 350 660 229 635 283 660 b 617 310 528 660 617 476 b 396 36 617 158 547 36 b 189 118 318 36 238 68 z "},"c":{"ha":685,"x_min":0,"x_max":0,"o":"m 390 715 b 14 353 183 719 14 560 b 397 -7 14 131 197 -7 b 429 -6 408 -7 419 -6 b 517 10 461 -1 489 0 b 583 33 540 15 561 24 b 681 99 600 42 674 83 b 672 113 682 103 679 107 b 665 114 671 114 668 115 b 479 61 606 76 540 61 b 142 390 297 61 142 197 b 406 669 142 551 235 669 b 656 510 528 669 613 610 b 664 507 657 506 660 506 l 676 515 b 679 522 679 517 681 518 b 390 715 642 651 518 715 z "},"d":{"ha":761,"x_min":0,"x_max":0,"o":"m 371 722 b 14 358 142 722 14 557 b 365 0 14 157 149 0 b 564 63 432 0 514 22 b 574 58 568 67 574 63 l 574 7 b 579 0 574 3 575 0 l 699 0 b 706 7 703 0 706 3 l 706 1050 b 699 1056 706 1054 703 1056 l 579 1056 b 574 1050 575 1056 574 1054 l 574 672 b 564 667 574 667 568 663 b 371 722 514 704 432 722 z m 143 401 b 383 676 143 558 229 676 b 572 603 454 676 526 647 b 574 597 572 601 574 601 l 574 132 b 572 128 574 131 574 129 b 415 54 533 79 481 54 b 143 401 238 54 143 233 z "},"e":{"ha":742,"x_min":0,"x_max":0,"o":"m 14 353 b 397 -7 14 131 197 -7 b 679 96 503 -7 601 28 b 679 106 681 100 681 104 l 672 113 b 665 114 671 114 668 115 b 483 63 606 76 543 63 b 146 338 322 63 172 175 b 151 344 144 342 146 344 l 721 344 b 728 351 725 344 728 347 l 728 358 b 382 715 724 568 579 715 b 14 353 194 715 14 579 z m 142 393 b 393 669 142 546 229 669 b 608 392 550 669 635 526 b 603 386 608 388 607 386 l 147 386 b 142 393 143 386 142 389 z "},"f":{"ha":397,"x_min":0,"x_max":0,"o":"m 1 660 b 8 653 1 656 4 653 l 88 653 b 93 647 92 653 93 651 l 93 7 b 100 0 93 3 96 0 l 218 0 b 225 7 222 0 225 3 l 225 647 b 232 653 225 651 228 653 l 389 653 b 396 660 393 653 396 656 l 396 689 b 389 694 396 693 393 694 l 228 694 b 203 771 217 694 203 760 b 279 975 196 840 213 935 b 332 990 297 985 315 990 b 426 940 369 990 400 969 b 438 944 431 936 438 939 l 438 981 b 435 986 438 982 436 985 b 319 1022 394 1010 356 1022 b 93 701 175 1022 97 840 b 88 694 93 697 92 694 l 8 694 b 1 689 4 694 1 693 l 1 660 z "},"g":{"ha":850,"x_min":0,"x_max":0,"o":"m 846 742 b 506 697 749 724 571 697 l 499 697 b 374 711 461 713 424 711 b 29 440 147 711 29 572 b 153 226 29 357 69 276 b 153 214 160 221 160 221 b 29 38 79 143 29 81 l 29 32 b 128 -44 29 -19 83 -37 b 222 -51 160 -51 190 -51 l 418 -51 b 556 -76 463 -57 511 -61 b 676 -219 621 -103 676 -143 b 418 -371 676 -303 563 -371 b 160 -101 243 -371 97 -283 b 153 -96 160 -96 160 -89 b 15 -226 64 -107 15 -149 b 361 -415 15 -346 160 -415 b 751 -169 575 -415 751 -315 b 406 64 751 -43 657 68 l 229 57 b 104 94 133 51 104 68 b 186 201 104 121 132 157 b 189 207 186 203 188 206 b 192 208 190 208 190 208 b 374 169 240 182 301 169 b 725 440 613 169 725 308 b 632 629 725 510 694 572 b 613 647 625 635 619 643 b 613 660 607 647 607 660 l 739 660 l 744 660 l 846 729 b 846 742 853 729 853 742 z m 399 208 b 167 422 288 190 171 294 b 211 592 160 478 178 540 b 482 647 282 692 386 718 b 506 258 608 565 606 358 b 399 208 474 225 438 208 z "},"h":{"ha":750,"x_min":0,"x_max":0,"o":"m 56 7 b 63 0 56 3 58 0 l 182 0 b 188 7 186 0 188 3 l 188 540 b 189 544 188 542 188 543 b 417 646 249 607 343 646 b 531 594 472 646 510 629 b 563 410 563 551 563 464 l 563 7 b 568 0 563 3 564 0 l 688 0 b 694 7 692 0 694 3 l 694 418 b 481 708 694 633 649 708 b 197 610 386 708 276 669 b 188 615 193 606 188 610 l 188 1036 b 182 1042 188 1040 186 1042 l 63 1042 b 56 1036 58 1042 56 1040 l 56 7 z "},"i":{"ha":271,"x_min":0,"x_max":0,"o":"m 68 701 b 69 6 68 519 69 132 b 75 0 69 1 71 0 l 194 0 b 201 6 199 0 201 1 l 201 701 b 194 708 201 706 199 708 l 74 708 b 68 701 69 708 68 706 z m 146 1024 b 58 936 93 1031 51 983 b 125 868 63 901 90 874 b 213 956 175 860 219 906 b 146 1024 208 993 181 1019 z "},"j":{"ha":249,"x_min":0,"x_max":0,"o":"m -56 -346 b -47 -351 -56 -351 -53 -353 b 53 -312 -8 -339 25 -325 b 182 -174 176 -257 182 -218 l 182 710 b 175 715 182 714 179 715 l 57 715 b 50 710 53 715 50 714 l 50 -174 b -53 -332 50 -237 42 -272 b -56 -337 -54 -333 -56 -336 z m 124 1025 b 36 936 69 1031 29 988 b 103 869 40 903 68 875 b 190 957 153 861 197 907 b 124 1025 186 994 158 1021 z "},"k":{"ha":751,"x_min":0,"x_max":0,"o":"m 56 7 b 63 0 56 3 58 0 l 182 0 b 188 7 186 0 188 3 l 188 371 b 199 375 188 376 194 379 l 574 3 b 578 0 575 1 576 0 l 743 0 b 747 11 749 0 751 7 l 326 428 b 326 438 324 432 324 435 b 692 708 365 465 586 631 b 688 719 697 713 694 719 l 632 719 b 628 718 631 719 629 719 l 197 406 b 188 410 193 401 188 406 l 188 1036 b 182 1042 188 1040 186 1042 l 63 1042 b 56 1036 58 1042 56 1040 l 56 7 z "},"l":{"ha":243,"x_min":0,"x_max":0,"o":"m 56 7 b 63 0 56 3 58 0 l 182 0 b 188 7 186 0 188 3 l 188 1036 b 182 1042 188 1040 186 1042 b 61 1040 161 1042 110 1042 b 56 1035 57 1040 56 1039 z "},"m":{"ha":1179,"x_min":0,"x_max":0,"o":"m 56 7 b 63 0 56 3 58 0 l 182 0 b 188 7 186 0 188 3 l 188 540 b 189 544 188 542 188 543 b 388 647 244 610 321 647 b 524 410 493 647 524 567 l 524 7 b 529 0 524 3 525 0 l 649 0 b 656 7 653 0 656 3 l 656 418 b 650 528 656 461 654 496 b 649 533 649 529 649 531 b 856 647 706 604 785 647 b 992 410 961 647 992 567 l 992 7 b 997 0 992 3 993 0 l 1117 0 b 1124 7 1121 0 1124 3 l 1124 418 b 918 708 1124 633 1072 708 b 644 593 824 708 722 664 b 635 596 639 588 636 589 b 449 708 607 679 550 708 b 197 610 365 708 271 669 b 188 615 193 606 188 610 l 188 703 b 182 708 188 707 186 708 l 63 708 b 56 703 58 708 56 707 z "},"n":{"ha":750,"x_min":0,"x_max":0,"o":"m 57 703 b 56 7 57 596 56 201 b 63 0 56 3 58 0 l 181 0 b 188 7 185 0 188 3 l 188 540 b 189 544 188 542 188 543 b 417 646 249 607 343 646 b 563 410 560 646 563 521 l 563 7 b 568 0 563 3 564 0 l 688 0 b 694 7 692 0 694 3 l 694 418 b 481 708 694 633 649 708 b 197 610 386 708 276 669 b 188 615 193 606 188 610 l 188 703 b 181 708 188 707 185 708 l 64 708 b 57 703 60 708 57 707 z "},"o":{"ha":818,"x_min":0,"x_max":0,"o":"m 14 353 b 410 -7 14 136 196 -7 b 804 353 621 -7 804 136 b 410 715 804 568 621 715 b 14 353 196 715 14 568 z m 410 24 b 147 403 232 35 136 210 b 417 694 158 569 257 706 b 672 311 589 683 683 504 b 410 24 661 144 564 13 z "},"p":{"ha":765,"x_min":0,"x_max":0,"o":"m 56 -357 b 63 -364 56 -361 58 -364 l 182 -364 b 188 -357 186 -364 188 -361 l 188 38 b 197 43 188 43 193 47 b 390 -11 251 10 319 -11 b 751 349 604 -11 751 138 b 419 711 751 553 613 700 b 197 651 342 711 260 700 b 188 656 193 647 188 650 l 188 706 b 182 711 188 710 186 711 l 63 711 b 56 706 58 711 56 710 z m 188 581 b 189 585 188 582 188 583 b 350 660 231 635 285 660 b 617 310 528 660 617 476 b 383 36 617 154 543 36 b 189 118 306 36 235 68 b 188 122 188 119 188 121 z "},"q":{"ha":763,"x_min":0,"x_max":0,"o":"m 371 711 b 14 347 142 711 14 546 b 367 -11 14 146 151 -11 b 565 51 432 -11 515 11 b 575 47 569 56 575 53 l 575 -357 b 581 -364 575 -361 576 -364 l 700 -364 b 707 -357 704 -364 707 -361 l 707 706 b 700 711 707 710 704 711 l 581 711 b 575 706 576 711 575 710 l 575 661 b 565 656 575 656 569 651 b 371 711 511 690 442 711 z m 417 43 b 144 390 238 43 144 222 b 383 665 144 547 232 665 b 574 592 454 665 528 636 b 575 586 574 590 575 590 l 575 121 b 574 117 575 119 575 118 b 417 43 532 68 479 43 z "},"r":{"ha":503,"x_min":0,"x_max":0,"o":"m 56 7 b 63 0 56 3 58 0 l 182 0 b 188 7 186 0 188 3 l 188 456 b 189 460 188 457 188 458 b 417 618 240 508 339 618 b 489 560 446 618 472 603 b 501 563 493 554 501 556 l 501 675 b 500 679 501 676 501 678 b 458 706 490 694 476 703 b 363 679 424 711 390 697 b 199 519 297 636 253 574 b 188 524 194 515 188 518 l 188 703 b 182 708 188 707 186 708 l 63 708 b 56 703 58 708 56 707 l 56 7 z "},"s":{"ha":606,"x_min":0,"x_max":0,"o":"m 4 201 b 1 194 3 200 1 197 b 151 29 28 121 78 61 b 376 -3 222 -3 299 -12 b 604 178 476 8 604 58 b 149 576 604 413 149 421 b 253 672 149 632 204 665 b 444 633 318 683 390 671 b 529 540 482 610 508 578 b 536 521 529 539 532 533 b 544 518 538 517 540 517 l 556 524 b 558 531 558 525 560 526 b 513 618 547 563 533 592 b 279 714 458 690 368 718 b 26 535 175 710 26 661 b 478 140 26 303 478 300 b 472 110 478 126 476 117 b 342 33 454 56 393 38 b 35 183 222 22 90 71 l 26 207 b 17 210 25 211 21 213 l 4 201 z "},"t":{"ha":424,"x_min":0,"x_max":0,"o":"m 7 706 b 1 700 3 706 1 704 l 1 671 b 8 664 1 667 4 664 l 97 664 b 103 658 101 664 103 663 l 103 188 b 279 -3 103 71 157 -3 b 451 117 378 -3 424 44 b 447 125 453 121 451 124 l 429 131 b 421 128 425 132 422 132 b 321 44 399 71 360 44 b 235 163 249 44 235 101 l 235 658 b 242 664 235 663 238 664 l 383 664 b 390 671 388 664 390 667 l 390 700 b 383 706 390 704 388 706 l 242 706 b 235 713 238 706 235 708 l 235 846 b 228 851 235 850 232 851 l 219 851 b 213 847 215 851 214 850 b 7 706 186 750 111 724 z "},"u":{"ha":750,"x_min":0,"x_max":0,"o":"m 63 708 b 56 703 58 708 56 707 l 56 281 b 271 0 56 67 100 0 b 553 100 365 0 474 40 b 563 94 557 104 563 100 l 563 7 b 568 0 563 3 564 0 l 688 0 b 694 7 692 0 694 3 l 694 703 b 688 708 694 707 692 708 l 568 708 b 563 703 564 708 563 707 l 563 169 b 561 165 563 168 563 167 b 335 61 501 101 406 61 b 239 96 292 61 260 72 b 188 292 200 133 188 186 l 188 703 b 182 708 188 707 186 708 l 63 708 z "},"v":{"ha":640,"x_min":0,"x_max":0,"o":"m 11 708 b 4 700 4 708 3 706 l 281 4 b 288 0 283 1 286 0 l 363 0 b 369 4 364 0 367 1 l 636 700 b 631 708 638 706 635 708 l 589 708 b 582 706 586 708 583 707 b 372 154 519 536 397 224 b 360 154 368 149 364 149 l 143 706 b 138 708 142 707 139 708 l 11 708 z "},"w":{"ha":1050,"x_min":0,"x_max":0,"o":"m 11 708 b 4 700 4 708 3 706 b 281 4 83 508 264 50 b 288 0 283 1 286 0 l 363 0 b 369 4 364 0 367 1 l 521 400 b 533 400 525 406 529 406 l 690 4 b 696 0 693 1 694 0 l 772 0 b 779 4 774 0 776 1 l 1046 700 b 1040 708 1050 704 1044 708 l 999 708 b 993 704 994 708 993 707 l 782 154 b 769 154 778 149 774 149 b 554 706 740 224 621 536 b 549 708 553 707 550 708 l 421 708 b 414 700 414 708 413 706 l 497 488 l 497 482 l 372 154 b 360 154 368 149 364 149 l 143 706 b 138 708 142 707 139 708 l 11 708 z "},"x":{"ha":606,"x_min":0,"x_max":0,"o":"m 10 711 b 4 701 4 711 0 706 b 240 328 75 583 221 363 b 240 321 242 326 242 324 l 4 10 b 10 0 0 6 4 0 l 60 0 b 65 1 63 0 64 0 b 267 271 139 101 242 239 b 276 269 271 275 275 275 b 443 3 299 236 388 96 b 447 0 443 1 444 0 l 594 0 b 600 10 600 0 604 6 b 365 385 526 132 383 351 b 365 392 364 388 364 390 l 601 700 b 596 711 606 704 601 711 l 547 711 b 542 708 546 711 543 710 l 339 440 b 329 440 335 436 331 436 l 160 708 b 156 711 160 710 158 711 l 10 711 z "},"y":{"ha":640,"x_min":0,"x_max":0,"o":"m 11 713 b 4 703 6 713 3 710 l 294 -19 b 294 -24 296 -21 296 -22 b 142 -383 283 -54 179 -297 b 149 -392 140 -389 142 -392 l 201 -392 b 207 -387 203 -392 206 -390 l 636 703 b 631 713 638 710 635 713 l 589 713 b 582 708 588 713 585 711 l 581 703 b 371 168 514 531 397 239 b 360 168 365 161 361 161 l 357 175 b 143 708 324 257 206 558 b 138 713 140 711 139 713 l 11 713 z "},"z":{"ha":643,"x_min":0,"x_max":0,"o":"m 4 10 b 10 0 0 6 4 0 l 607 0 b 614 6 611 0 614 1 l 614 43 b 607 50 614 47 611 50 l 207 50 b 201 60 201 50 197 56 l 639 701 b 633 713 643 706 639 713 l 63 713 b 57 706 58 713 57 710 l 57 668 b 63 663 57 664 58 663 l 438 663 b 443 651 443 663 447 656 l 4 10 z "}," ":{"ha":442,"x_min":0,"x_max":0,"o":""},"­":{"ha":0,"x_min":0,"x_max":0,"o":""},"":{"ha":913,"x_min":0,"x_max":0,"o":"m 43 650 b 6 572 17 635 0 604 b 72 504 10 538 38 510 b 156 610 129 497 174 551 b 288 558 201 597 244 579 b 290 551 290 557 292 556 b 99 10 219 351 132 110 b 104 1 97 4 99 1 l 144 1 b 150 6 146 1 149 3 l 335 525 b 344 528 336 529 340 531 b 707 175 513 431 640 286 l 765 6 b 772 1 767 3 768 1 l 901 1 b 908 10 907 1 910 4 b 731 519 875 103 800 317 b 574 969 657 735 585 936 b 568 974 574 972 572 974 l 444 974 b 438 969 440 974 439 972 l 393 843 l 368 772 b 307 597 353 728 333 668 b 299 594 304 593 301 592 b 124 656 247 617 172 644 b 43 650 97 660 69 665 z m 354 564 b 351 572 350 565 350 568 l 456 865 b 467 865 457 871 465 871 l 625 414 l 656 324 b 646 318 660 318 650 313 b 354 564 557 424 456 507 z "},"":{"ha":1040,"x_min":0,"x_max":0,"o":"m 8 786 b 71 679 -10 735 22 686 b 158 767 121 671 165 717 b 125 822 156 790 144 808 b 125 832 121 826 121 831 b 529 932 253 899 385 926 l 576 932 b 831 731 750 932 831 858 b 572 539 831 576 701 539 l 436 539 b 429 544 432 539 429 540 l 429 896 b 422 901 429 903 426 904 b 299 872 379 892 342 883 b 294 867 296 869 294 868 l 294 7 b 301 1 294 3 297 1 l 650 1 b 1026 269 910 1 1026 108 b 892 492 1026 369 986 443 b 828 515 871 501 851 508 b 828 528 822 519 822 524 b 971 731 928 571 971 642 b 776 953 971 853 888 926 l 763 957 b 578 976 703 972 640 976 b 476 972 543 976 510 975 l 471 972 b 71 847 321 961 200 924 b 8 788 44 832 24 814 z m 436 51 b 429 57 432 51 429 53 l 429 482 b 436 489 429 486 432 489 l 628 489 b 886 274 790 489 886 413 b 628 51 886 133 796 51 z "},"":{"ha":897,"x_min":0,"x_max":0,"o":"m 226 904 b 14 488 86 810 14 656 b 518 -12 14 193 240 -12 b 893 171 668 -12 804 49 b 892 179 894 174 894 176 l 888 183 b 879 183 883 185 881 185 b 594 58 796 94 694 58 b 153 550 360 58 153 265 b 508 943 153 815 336 943 b 785 839 631 943 719 913 b 781 829 789 835 786 829 b 710 740 738 825 706 789 b 788 674 714 697 750 674 b 863 729 819 674 847 690 b 732 924 882 808 790 888 b 544 986 676 961 611 981 b 226 904 433 993 321 965 z "},"":{"ha":1089,"x_min":0,"x_max":0,"o":"m 11 879 b 1 843 4 869 1 858 b 58 767 1 810 25 776 b 146 889 121 751 183 814 b 150 897 144 893 146 896 b 475 926 257 924 364 926 b 706 889 553 928 633 924 b 850 764 765 860 813 818 b 938 418 917 663 942 540 b 601 51 933 214 808 51 l 421 51 b 414 57 417 51 414 53 l 414 899 b 407 906 414 903 411 906 b 285 901 367 906 326 904 b 279 894 281 900 279 899 l 279 7 b 286 1 279 3 282 1 l 565 1 b 1075 488 860 1 1075 192 b 544 974 1075 810 851 974 b 310 965 467 978 388 971 b 11 879 242 961 51 944 z "},"":{"ha":853,"x_min":0,"x_max":0,"o":"m 3 851 b 13 807 1 840 6 825 b 81 767 28 783 53 767 b 149 806 108 767 136 782 b 156 861 158 824 161 843 b 132 900 151 876 142 888 b 136 917 126 910 125 911 b 163 922 143 921 153 922 b 207 918 178 924 193 922 b 300 661 294 889 300 735 l 300 7 b 306 1 300 3 301 1 l 846 1 b 851 7 850 1 851 3 l 851 44 b 846 51 851 49 850 51 l 440 51 b 435 57 436 51 435 53 l 435 472 b 440 479 435 476 436 479 l 760 479 b 765 485 764 479 765 481 l 765 522 b 760 529 765 526 764 529 l 440 529 b 435 535 436 529 435 531 l 435 917 b 440 924 435 921 436 924 l 846 924 b 851 929 850 924 851 925 l 851 967 b 846 974 851 971 850 974 l 665 974 b 421 978 582 974 504 978 b 46 913 321 978 131 968 b 3 851 25 897 7 878 z "},"":{"ha":878,"x_min":0,"x_max":0,"o":"m 15 868 b 65 764 -3 824 22 776 b 165 835 114 749 161 783 b 169 914 165 863 129 899 b 222 924 186 919 204 924 b 325 761 317 924 321 833 b 325 431 329 650 325 542 l 325 7 b 331 1 325 3 326 1 l 453 1 b 460 7 457 1 460 3 l 460 472 b 465 479 460 476 461 479 l 785 479 b 792 485 789 479 792 481 l 792 522 b 785 529 792 526 789 529 l 465 529 b 460 535 461 529 460 531 l 460 917 b 465 924 460 921 461 924 l 871 924 b 876 929 875 924 876 925 l 876 967 b 871 974 876 971 875 974 l 844 974 b 501 979 728 974 618 978 b 29 889 383 979 110 976 b 15 868 25 885 19 878 z "},"":{"ha":950,"x_min":0,"x_max":0,"o":"m 504 986 b 14 488 225 986 14 771 b 518 -12 14 193 240 -12 b 781 38 576 -12 615 -7 b 788 32 785 38 788 36 b 797 -37 788 14 797 -32 b 814 -107 801 -61 807 -83 b 1113 -374 851 -237 969 -374 b 1171 -364 1136 -374 1156 -371 b 1172 -222 1235 -342 1232 -249 b 1143 -217 1165 -218 1156 -217 b 1064 -287 1103 -217 1065 -244 b 1063 -293 1064 -290 1064 -292 b 1032 -286 1058 -299 1036 -290 l 997 -265 b 910 -111 947 -228 918 -176 b 901 82 904 -46 903 17 b 903 75 903 81 903 79 l 903 250 l 903 456 b 896 463 903 460 900 463 l 793 463 b 788 456 789 463 788 460 l 788 108 b 785 104 788 106 786 104 b 579 42 719 61 650 42 b 153 546 317 42 153 276 b 528 944 153 767 293 944 b 744 872 606 944 683 921 b 743 861 750 865 750 863 b 769 710 668 835 683 721 l 771 710 b 839 824 838 714 864 772 b 753 910 822 858 785 888 b 504 986 681 964 593 986 z "},"":{"ha":872,"x_min":0,"x_max":0,"o":"m 63 974 b 56 967 58 974 56 971 l 56 7 b 63 1 56 3 58 1 l 185 1 b 190 7 189 1 190 3 l 190 467 b 197 474 190 471 193 474 l 669 474 b 676 467 674 474 676 471 l 676 222 b 757 -215 676 74 675 -86 b 1007 -367 808 -293 906 -367 b 1064 -358 1026 -367 1046 -364 b 1064 -217 1126 -336 1126 -239 b 1033 -210 1050 -212 1040 -210 b 956 -287 989 -210 956 -243 b 924 -281 951 -293 928 -282 b 889 -260 911 -276 900 -269 b 806 8 807 -197 806 -87 l 806 26 b 811 514 810 189 811 351 l 811 967 b 804 974 811 971 808 974 l 682 974 b 676 967 678 974 676 971 l 676 529 b 669 524 676 525 674 524 l 197 524 b 190 529 193 524 190 525 l 190 967 b 185 974 190 971 189 974 l 63 974 z "},"":{"ha":433,"x_min":0,"x_max":0,"o":"m 153 949 b 6 826 96 933 -6 904 b 82 761 11 788 44 761 b 138 783 104 761 122 768 b 135 889 167 811 167 863 l 132 893 b 150 914 128 911 140 914 b 244 785 228 921 240 847 b 243 10 244 544 243 54 l 243 1 l 372 1 b 378 7 376 1 378 3 l 378 99 l 378 233 l 378 397 l 378 532 l 378 572 l 378 744 l 378 896 l 378 968 b 371 975 378 972 375 975 b 153 949 299 969 224 965 z "},"":{"ha":496,"x_min":0,"x_max":0,"o":"m 17 892 b 54 775 -14 846 10 790 b 82 769 61 771 71 769 b 158 842 121 769 154 799 b 138 901 161 865 154 885 b 140 911 131 906 132 910 b 153 915 146 913 151 915 b 176 921 160 917 167 919 b 306 804 244 940 306 867 l 306 94 b 214 -62 306 26 281 -12 b 182 -86 204 -72 193 -76 b 179 -92 181 -87 179 -90 l 179 -97 b 188 -103 179 -103 182 -104 b 440 99 383 -29 440 28 l 440 963 b 433 969 440 965 438 968 b 354 972 407 971 381 972 b 17 892 261 972 68 961 z "},"":{"ha":1088,"x_min":0,"x_max":0,"o":"m 17 892 b 54 775 -12 847 8 790 b 82 769 61 771 71 769 b 158 842 121 769 154 799 b 138 901 161 865 154 885 b 140 911 131 906 132 910 b 153 915 146 913 151 915 b 196 921 165 919 179 921 b 267 890 222 921 249 913 b 301 746 301 850 303 796 b 300 656 301 717 300 688 b 299 525 300 613 299 569 l 299 396 b 300 265 299 351 299 308 b 301 135 300 222 300 178 b 303 19 301 126 303 51 b 304 6 303 10 303 6 l 417 0 b 431 4 424 0 428 1 b 435 17 433 6 435 10 l 443 436 b 453 440 443 442 449 444 b 900 1 561 335 775 126 b 904 0 901 0 903 0 l 1079 0 b 1083 11 1085 0 1088 7 b 693 403 1001 97 824 272 l 549 547 b 550 556 547 550 547 553 b 994 958 588 593 888 863 b 990 969 999 963 996 969 l 942 969 b 938 968 940 969 939 969 b 453 547 789 838 593 668 b 443 553 449 543 443 547 l 435 957 b 429 963 435 961 433 963 b 306 968 389 967 349 968 b 17 892 221 968 68 963 z "},"":{"ha":847,"x_min":0,"x_max":0,"o":"m 17 886 b 54 768 -15 838 10 786 b 81 764 63 765 71 764 b 158 835 119 764 154 792 b 138 894 161 858 154 878 b 163 911 131 904 156 911 b 206 917 178 915 190 918 b 292 819 260 913 286 868 b 294 657 299 765 294 711 b 294 494 296 603 294 549 l 294 7 b 300 1 294 3 296 1 l 840 1 b 846 7 844 1 846 3 l 846 44 b 840 51 846 49 844 51 l 435 51 b 429 57 431 51 429 53 l 429 969 b 422 976 429 974 426 976 b 71 925 325 976 158 965 b 17 886 49 915 31 903 z "},"":{"ha":1374,"x_min":0,"x_max":0,"o":"m 22 871 b 67 757 -7 824 24 768 b 167 829 117 742 165 775 b 143 888 168 851 160 871 b 221 913 128 903 210 913 b 314 688 331 894 314 768 l 314 526 l 314 235 l 314 7 b 319 1 314 3 315 1 l 357 1 b 364 7 361 1 364 3 l 364 807 b 376 810 364 814 372 817 l 729 6 b 735 1 729 3 731 1 l 794 1 b 800 6 796 1 799 3 l 1171 829 b 1183 826 1175 835 1183 833 l 1183 7 b 1189 1 1183 3 1185 1 l 1311 1 b 1318 7 1315 1 1318 3 l 1318 967 b 1311 974 1318 971 1315 974 l 1185 974 b 1179 969 1181 974 1179 972 l 817 165 b 806 165 811 160 807 160 l 451 969 b 446 974 450 972 447 974 b 22 871 350 974 85 963 z "},"":{"ha":1100,"x_min":0,"x_max":0,"o":"m 22 874 b 65 758 -6 825 21 774 b 167 829 115 743 163 775 b 144 889 168 851 160 871 b 168 906 135 899 164 906 b 206 913 185 910 197 913 b 265 893 226 913 247 906 b 300 819 289 872 301 847 l 300 257 l 300 7 b 307 1 300 3 303 1 l 344 1 b 350 7 349 1 350 3 l 350 808 b 368 826 350 821 356 826 b 383 818 374 826 379 824 l 974 4 b 979 1 975 3 978 1 l 1039 1 b 1044 7 1043 1 1044 3 l 1044 967 b 1039 974 1044 971 1043 974 l 1001 974 b 994 967 997 974 994 971 l 994 261 b 976 243 994 249 989 243 b 963 250 972 243 967 246 b 944 274 958 257 953 265 l 876 368 b 775 508 843 417 808 463 b 661 667 738 563 699 613 b 457 953 590 761 518 853 b 426 969 450 965 439 971 b 147 943 332 960 242 964 b 22 874 99 933 54 917 z "},"":{"ha":1067,"x_min":0,"x_max":0,"o":"m 18 514 b 514 -12 7 219 208 -1 b 1046 474 821 -24 1035 179 b 1006 707 1050 558 1038 636 b 643 974 947 850 803 974 b 453 840 557 974 471 932 b 524 738 446 790 469 742 b 596 856 582 733 626 794 l 596 857 b 593 911 574 886 554 893 b 656 918 614 921 635 924 b 768 850 694 908 742 882 b 776 840 772 849 775 844 l 781 835 b 890 390 869 735 903 581 b 797 138 883 285 849 199 b 510 25 725 49 621 13 b 164 586 254 54 131 324 b 475 953 190 803 317 938 b 521 989 490 968 506 979 b 517 1000 526 993 524 1000 b 18 514 225 996 29 793 z "},"":{"ha":1038,"x_min":0,"x_max":0,"o":"m 22 871 b 67 757 -7 824 24 768 b 167 829 117 742 165 775 b 157 869 168 839 164 853 b 150 900 151 881 132 890 b 203 913 167 908 185 913 b 286 871 238 913 265 899 b 301 750 310 836 301 789 l 301 574 l 301 432 l 301 294 l 301 171 l 301 72 l 301 8 l 301 7 b 307 1 301 3 303 1 l 429 1 b 436 7 433 1 436 3 l 436 469 b 444 475 436 474 439 476 b 676 425 522 443 593 425 b 1024 715 865 425 1024 526 b 651 974 1024 925 822 974 b 293 967 529 974 411 979 b 22 871 226 960 63 933 z m 440 506 b 436 511 438 506 436 507 l 436 917 b 442 924 436 921 438 924 l 626 924 b 883 713 797 924 883 853 b 635 467 883 568 797 467 b 440 506 578 467 514 478 z "},"":{"ha":1051,"x_min":0,"x_max":0,"o":"m 15 497 b 496 -12 11 215 201 6 b 500 -15 497 -12 499 -14 b 869 -265 613 -172 740 -261 b 1032 -222 924 -267 978 -253 b 1036 -217 1035 -221 1036 -219 l 1035 -214 b 1026 -208 1035 -210 1032 -207 b 931 -225 993 -221 963 -225 b 644 -10 825 -221 733 -149 b 647 -1 640 -6 643 -1 b 1038 478 878 43 1033 232 b 1026 600 1038 518 1036 560 b 647 956 989 778 840 956 b 432 829 571 956 458 911 b 508 733 421 775 460 733 b 585 803 547 733 581 764 b 546 878 589 835 572 863 b 539 885 543 879 540 882 b 604 924 535 907 590 924 b 757 847 665 928 718 890 b 858 681 800 799 836 743 b 886 381 893 586 901 481 b 792 149 871 285 838 208 b 494 32 718 54 611 15 b 163 593 238 74 125 335 b 497 946 189 769 300 946 b 568 974 524 958 547 968 b 567 986 575 975 574 985 b 535 988 556 986 546 988 b 15 497 224 994 22 782 z "},"":{"ha":996,"x_min":0,"x_max":0,"o":"m 10 883 b 1 847 4 872 1 860 b 60 772 3 814 26 782 b 157 850 110 761 157 796 b 142 894 157 867 151 882 b 143 904 139 897 139 900 b 197 924 164 917 182 924 b 264 738 246 924 268 865 l 263 738 l 263 7 b 269 1 263 3 265 1 l 392 1 b 397 7 396 1 397 3 l 397 476 b 403 483 397 481 399 483 l 424 483 l 425 482 b 719 128 553 322 640 221 b 811 29 760 82 790 50 b 953 -32 881 -32 908 -32 l 1049 -32 b 1056 -25 1053 -32 1056 -29 l 1056 -14 b 1049 -8 1056 -10 1053 -8 b 899 93 982 -8 936 44 l 761 275 l 607 474 b 611 483 603 478 606 483 b 971 729 778 488 971 525 b 599 974 971 933 761 974 l 319 974 b 93 936 218 974 189 965 b 10 883 61 926 28 915 z m 397 917 b 403 924 397 921 399 924 l 574 924 b 831 729 744 924 831 858 b 574 533 831 601 747 533 l 403 533 b 397 539 399 533 397 535 z "},"":{"ha":688,"x_min":0,"x_max":0,"o":"m 6 258 b 4 239 4 253 3 246 b 128 57 19 165 65 100 b 153 42 138 50 143 46 b 339 -12 208 8 274 -8 b 563 35 417 -18 497 -6 b 683 224 629 75 679 146 b 604 415 688 294 653 364 b 432 538 556 467 494 504 b 250 647 369 571 306 603 b 182 722 224 668 199 690 b 164 819 165 751 157 786 b 354 940 182 901 276 940 b 558 847 432 940 508 907 b 556 838 563 843 560 838 b 492 783 526 832 501 811 b 517 696 481 751 490 717 b 564 681 529 686 546 681 b 622 706 588 681 607 689 b 572 890 674 764 618 849 b 386 982 521 942 460 972 b 194 958 321 990 257 982 b 43 807 126 931 64 878 b 93 600 22 736 47 660 b 264 465 138 543 199 503 b 453 354 329 428 393 397 b 553 192 507 314 554 257 b 353 33 549 88 444 38 b 21 264 208 29 69 126 b 6 258 17 268 11 267 z "},"":{"ha":1079,"x_min":0,"x_max":0,"o":"m 193 969 b 11 765 126 936 -15 860 b 88 711 21 731 50 711 b 164 778 125 711 158 740 b 149 832 165 801 161 819 b 113 860 139 844 129 850 l 104 863 b 104 874 99 868 99 872 l 164 901 l 186 913 l 214 922 b 483 957 303 951 393 957 b 490 950 488 957 490 954 l 490 7 b 496 1 490 3 492 1 l 618 1 b 625 7 622 1 625 3 l 625 17 b 624 468 625 121 628 292 l 624 824 l 624 950 b 629 956 624 954 625 956 b 1072 1075 776 956 963 965 b 1074 1083 1076 1079 1076 1082 l 1069 1089 b 1061 1090 1067 1092 1064 1092 b 832 1029 990 1047 911 1035 l 813 1029 b 799 1028 806 1029 800 1029 b 581 1031 728 1026 658 1031 b 321 1014 496 1032 410 1032 b 193 969 276 1004 233 990 z "},"":{"ha":1047,"x_min":0,"x_max":0,"o":"m 1 846 b 14 803 1 829 6 815 b 85 768 29 779 57 764 b 150 813 113 769 139 786 b 153 868 160 829 160 847 b 126 904 147 883 136 893 b 214 925 104 933 203 932 b 272 813 265 908 272 858 b 271 719 274 781 271 751 l 271 394 b 640 -12 271 110 446 -12 b 992 389 844 -12 992 117 l 992 967 b 985 974 992 971 989 974 l 947 974 b 942 967 943 974 942 971 l 942 378 b 668 36 942 150 825 36 b 406 376 519 36 406 132 l 406 967 b 400 974 406 971 404 974 b 210 969 338 974 275 975 b 1 846 142 963 6 931 z "},"":{"ha":1046,"x_min":0,"x_max":0,"o":"m 3 857 b 13 814 1 844 6 831 b 81 774 28 788 51 774 b 149 813 108 772 136 789 b 156 868 158 831 161 850 b 132 907 151 883 142 892 b 136 922 126 917 125 918 b 207 926 157 932 183 932 b 311 778 278 908 289 836 b 371 607 332 721 350 664 b 511 204 419 474 467 339 b 581 6 535 139 560 72 b 588 1 582 3 583 1 l 694 1 b 700 6 699 1 700 3 l 1042 965 b 1035 974 1043 971 1040 974 l 996 974 b 990 969 992 974 990 972 b 693 129 924 788 732 229 b 681 129 689 124 685 124 l 388 969 b 382 974 388 972 386 974 b 46 918 272 974 143 981 b 3 857 25 903 7 883 z "},"":{"ha":1504,"x_min":0,"x_max":0,"o":"m 3 857 b 13 814 1 844 6 831 b 81 774 28 788 51 774 b 149 813 108 772 136 789 b 156 868 158 831 161 850 b 132 907 151 883 142 892 b 136 922 126 917 125 918 b 178 932 149 929 163 932 b 258 903 210 932 235 919 b 325 772 299 869 308 821 b 382 607 343 718 361 663 l 499 271 l 579 38 l 590 6 b 596 1 592 3 593 1 l 704 1 b 710 6 708 1 710 3 l 872 458 b 883 458 874 464 882 464 l 1040 6 b 1046 1 1042 3 1043 1 l 1156 1 b 1161 6 1160 1 1161 3 l 1500 965 b 1493 974 1501 971 1499 974 l 1454 974 b 1449 969 1450 974 1449 972 b 1153 129 1376 763 1192 229 b 1142 129 1151 124 1143 124 b 850 969 1108 228 933 738 b 844 974 849 972 846 974 l 715 974 b 710 965 710 974 708 971 l 851 553 l 851 549 l 703 129 b 690 129 699 124 692 124 l 467 774 l 400 969 b 393 974 399 972 396 974 b 46 918 281 974 146 985 b 3 857 25 903 7 883 z "},"":{"ha":919,"x_min":0,"x_max":0,"o":"m 3 857 b 13 814 1 844 6 831 b 81 774 28 788 51 774 b 149 813 108 772 136 789 b 156 868 158 831 161 850 b 132 907 151 883 142 892 b 136 922 126 917 125 918 b 208 928 158 933 182 933 b 253 908 224 924 238 918 b 332 799 292 882 310 839 b 408 660 358 753 382 708 l 517 464 b 522 456 518 460 521 457 b 521 450 522 453 522 451 l 247 11 b 253 1 246 4 249 1 l 300 1 b 304 4 303 1 304 3 b 546 392 371 108 517 344 b 557 392 550 396 553 396 l 768 4 b 774 1 769 3 772 1 l 910 1 b 915 11 915 1 919 7 b 635 524 832 157 658 489 b 635 529 633 525 633 528 l 899 964 b 893 974 903 968 899 974 l 844 974 b 840 971 842 974 840 972 b 611 589 781 867 640 636 b 600 589 607 585 604 585 l 389 969 b 383 974 388 972 385 974 b 165 961 311 974 238 976 b 3 857 106 950 14 928 z "},"":{"ha":935,"x_min":0,"x_max":0,"o":"m 3 839 b 14 796 1 824 7 811 b 85 760 29 774 57 758 b 151 803 113 761 139 776 b 154 858 160 822 161 840 b 129 896 150 874 139 883 b 132 913 122 906 121 907 b 175 924 147 922 160 924 b 206 919 185 924 196 922 b 283 857 238 907 264 886 b 346 744 310 822 325 782 l 504 451 b 506 449 504 450 504 450 l 506 7 b 511 1 506 3 507 1 l 633 1 b 640 7 638 1 640 3 l 640 456 l 640 458 b 931 964 656 485 863 840 b 925 974 935 968 931 974 l 876 974 b 871 969 874 974 872 972 l 624 533 b 613 533 618 528 614 528 l 374 969 b 368 974 372 972 369 974 b 22 886 274 974 85 964 b 3 839 11 874 4 857 z "},"":{"ha":872,"x_min":0,"x_max":0,"o":"m 72 929 b 3 831 35 908 1 876 b 18 789 3 815 8 801 b 92 760 35 767 64 756 b 154 808 119 764 144 782 b 153 864 161 824 160 842 b 129 893 149 874 139 883 b 132 903 125 897 128 903 b 347 924 203 921 275 924 l 676 924 b 682 914 682 924 686 918 l 157 11 b 163 1 153 7 158 1 l 822 1 b 828 7 826 1 828 3 l 828 51 l 347 51 b 342 61 342 51 338 57 l 868 964 b 863 974 872 968 868 974 l 394 974 b 276 975 356 974 317 974 b 72 929 197 975 143 968 z "},"":{"ha":690,"x_min":0,"x_max":0,"o":"m 22 511 b 28 454 17 493 18 474 b 113 413 43 422 79 406 b 167 524 164 424 189 475 b 128 561 158 542 146 554 b 193 613 149 582 171 597 b 265 653 217 631 242 643 b 388 664 304 665 344 671 b 510 468 482 646 506 553 b 507 463 510 467 508 464 b 18 161 361 361 18 367 b 231 -14 18 50 107 -14 b 513 100 338 -14 435 22 l 515 101 l 515 39 b 706 -283 519 -112 522 -265 b 810 -257 740 -287 783 -285 b 825 -178 831 -235 835 -204 b 751 -126 813 -144 783 -126 b 707 -140 733 -126 719 -131 b 679 -233 675 -161 664 -200 b 669 -242 683 -240 675 -246 b 644 -181 653 -226 649 -203 b 638 -69 638 -143 638 -107 b 642 269 638 43 642 157 l 642 414 b 546 682 642 501 639 633 b 346 714 489 714 408 724 b 160 647 281 703 214 686 l 156 644 b 22 511 115 618 40 560 z m 290 38 b 161 164 211 38 161 81 b 501 415 161 332 364 333 b 511 410 506 419 511 415 l 511 158 b 510 154 511 157 511 156 b 290 38 447 71 368 38 z "},"":{"ha":765,"x_min":0,"x_max":0,"o":"m -164 -131 b -221 -232 -207 -142 -236 -187 b -136 -287 -206 -265 -174 -283 b -35 -258 -101 -289 -67 -276 b 171 14 71 -203 144 -103 b 179 18 172 18 175 19 b 368 -15 240 -3 303 -15 b 546 24 429 -15 490 -3 b 750 342 664 83 746 207 b 560 667 754 475 676 603 b 390 707 508 693 451 707 b 183 644 317 707 244 688 l 182 1033 b 176 1039 182 1038 181 1039 b 56 1040 136 1043 96 1042 b 50 1033 51 1039 50 1038 b 51 364 50 810 51 588 b 47 -11 53 236 53 117 b -65 -237 43 -99 25 -196 b -74 -229 -71 -242 -75 -235 b -164 -131 -51 -174 -110 -119 z m 185 114 b 182 118 183 115 182 117 l 182 578 b 183 582 182 579 183 581 b 344 657 224 632 276 657 b 611 307 522 657 611 474 b 390 33 611 156 542 33 b 185 114 313 33 233 64 z "},"":{"ha":699,"x_min":0,"x_max":0,"o":"m 14 346 b 397 -14 14 124 197 -14 l 429 -14 b 583 25 483 -8 533 3 b 681 90 600 33 674 75 b 672 104 682 94 679 99 b 665 106 671 106 668 107 b 479 54 606 72 547 54 b 142 383 297 54 142 190 b 406 663 142 544 235 663 b 657 497 529 663 614 603 b 649 489 658 490 656 488 b 614 497 638 494 626 497 b 579 488 600 497 589 494 b 558 365 533 461 524 403 b 617 340 575 349 594 340 b 683 379 644 340 667 353 b 689 393 685 383 688 388 b 642 592 711 458 679 539 b 390 707 585 671 485 707 b 14 346 183 711 14 553 z "},"":{"ha":774,"x_min":0,"x_max":0,"o":"m -69 1019 b -112 1033 -82 1029 -96 1033 b -164 896 -174 1033 -224 949 b -85 872 -146 881 -119 872 b 244 964 17 872 164 942 b 442 993 290 975 369 993 b 544 969 485 993 524 988 b 583 661 589 932 590 872 b 578 656 583 657 582 656 b 342 707 558 656 483 718 b 119 601 257 700 175 663 b 356 -14 -65 400 24 -3 b 578 43 490 -18 560 43 b 582 38 581 43 582 42 b 589 -11 581 38 585 -3 b 710 -12 600 -15 593 -17 b 717 -7 714 -12 717 -11 b 668 1008 717 972 731 953 b 515 1044 636 1036 581 1044 b 304 1019 438 1044 353 1031 b -33 917 196 993 92 939 b -69 1019 -56 913 -6 979 z m 426 40 b 154 388 249 40 154 219 b 394 663 154 544 240 663 b 582 588 465 663 536 632 b 585 583 583 586 585 585 l 585 117 b 583 113 585 115 583 114 b 426 40 543 64 492 40 z "},"":{"ha":1185,"x_min":0,"x_max":0,"o":"m 382 708 b 14 346 194 708 14 572 b 397 -14 14 124 197 -14 b 601 33 469 -14 536 6 b 749 101 651 54 700 79 b 954 136 814 133 882 144 b 1054 118 988 132 1021 128 b 1036 14 1022 94 1014 47 b 1103 -21 1051 -10 1074 -21 b 1139 -11 1118 -21 1129 -18 b 1171 90 1172 10 1188 56 b 982 171 1142 150 1039 164 b 889 176 949 175 922 178 b 693 122 822 172 753 150 b 483 56 628 90 561 56 b 146 329 322 56 172 168 b 151 338 144 335 146 338 l 721 338 b 728 343 725 338 728 339 l 728 351 b 382 708 721 550 594 708 z m 142 385 b 393 663 142 536 229 663 b 608 383 550 663 635 517 b 603 379 608 381 607 379 l 147 379 b 142 385 143 379 142 381 z "},"":{"ha":357,"x_min":0,"x_max":0,"o":"m 1 657 b 8 651 1 653 4 651 l 76 651 b 82 644 81 651 82 649 l 82 101 l 82 14 b 86 1 82 8 83 4 b 96 0 88 0 90 0 l 203 0 b 214 11 210 0 214 4 l 214 644 b 221 651 214 649 217 651 l 358 651 b 364 657 363 651 364 653 l 364 688 b 358 693 364 692 363 693 b 231 694 315 693 274 693 b 206 710 215 694 210 694 b 239 947 178 788 185 882 b 324 989 263 975 290 989 b 357 983 339 989 350 988 b 358 971 363 979 363 975 b 367 833 293 938 314 853 b 392 829 375 831 383 829 b 464 875 421 829 451 847 b 411 988 486 919 449 965 b 307 1019 379 1008 344 1019 b 83 707 151 1019 90 833 b 81 696 83 701 82 697 b 8 693 76 692 15 693 b 1 688 4 693 1 692 z "},"":{"ha":958,"x_min":0,"x_max":0,"o":"m 153 -93 b 14 -224 69 -106 14 -151 b 358 -414 14 -385 242 -414 b 747 -169 574 -414 747 -314 b 406 61 747 -47 653 68 l 231 54 b 107 93 136 50 107 65 b 186 200 107 119 138 151 b 193 201 188 201 190 203 b 375 167 242 178 303 167 b 721 435 613 167 721 307 b 628 625 721 503 689 574 b 628 635 625 629 625 632 b 797 726 688 694 742 708 b 806 718 801 728 807 722 b 843 622 790 683 808 639 b 875 614 853 617 863 614 b 944 653 903 614 929 629 b 919 757 965 688 951 736 b 861 771 901 768 882 771 b 596 657 767 771 663 722 b 589 657 594 656 592 656 b 375 708 518 690 458 708 b 29 436 149 708 29 571 b 154 222 29 357 69 276 b 156 213 158 219 160 217 b 31 33 82 140 31 82 l 31 32 b 224 -54 31 -53 163 -54 b 414 -56 286 -54 349 -51 b 675 -221 517 -60 675 -89 b 418 -369 675 -304 563 -369 b 325 -361 385 -369 354 -367 b 160 -101 194 -335 113 -251 b 153 -93 164 -97 158 -92 z m 304 208 b 211 583 149 286 131 463 b 371 681 254 649 311 681 b 481 644 406 681 443 668 b 488 226 621 551 625 338 b 383 189 458 200 421 189 b 304 208 360 189 333 196 z "},"":{"ha":743,"x_min":0,"x_max":0,"o":"m 56 6 b 63 0 56 1 58 0 l 182 0 b 188 6 186 0 188 1 l 188 539 b 189 543 188 540 188 542 b 417 646 250 608 343 646 b 563 410 560 646 563 525 l 563 261 l 563 6 b 781 -285 563 -144 607 -285 b 876 -232 821 -285 861 -275 b 876 -176 883 -212 883 -194 b 804 -126 864 -144 836 -126 b 758 -140 786 -126 771 -131 b 728 -221 732 -158 721 -192 b 717 -226 729 -228 721 -232 b 692 -87 693 -187 692 -131 b 694 86 693 -31 694 26 l 694 418 b 481 708 694 633 649 708 b 197 608 386 708 276 668 b 188 614 193 604 188 608 l 188 1035 b 182 1040 188 1039 186 1040 l 61 1040 b 56 1035 57 1040 56 1039 l 56 6 z "},"":{"ha":253,"x_min":0,"x_max":0,"o":"m 74 710 b 68 704 69 710 68 708 l 68 474 l 68 150 b 85 -3 68 99 72 47 b 264 -183 108 -104 153 -174 b 388 -131 310 -187 365 -181 b 388 -74 394 -111 394 -92 b 315 -24 375 -42 347 -24 b 268 -39 300 -24 283 -29 b 244 -133 239 -61 229 -100 b 235 -140 249 -139 239 -144 b 201 -44 207 -118 201 -79 b 201 481 197 81 201 356 l 201 704 b 194 710 201 708 199 710 z m 146 1025 b 58 938 93 1032 51 985 b 125 871 63 903 90 875 b 213 958 172 864 219 906 b 146 1025 208 993 181 1021 z "},"":{"ha":267,"x_min":0,"x_max":0,"o":"m -339 -256 b -308 -351 -350 -289 -335 -325 b -126 -403 -264 -392 -183 -403 b 153 -293 -21 -403 79 -367 b 197 -121 201 -244 197 -186 l 197 701 b 192 708 197 706 196 708 l 72 708 b 65 701 68 708 65 706 l 65 -108 b 47 -243 65 -154 74 -203 b -182 -365 7 -310 -103 -365 b -222 -360 -199 -365 -212 -364 b -224 -347 -228 -358 -229 -351 b -231 -214 -176 -318 -181 -240 b -265 -206 -242 -208 -253 -206 b -339 -256 -297 -206 -329 -224 z m 139 1017 b 51 929 86 1024 44 976 b 118 861 56 894 83 867 b 206 949 169 854 213 897 b 139 1017 201 986 174 1013 z "},"":{"ha":722,"x_min":0,"x_max":0,"o":"m 61 1040 b 56 1035 57 1040 56 1039 l 56 6 b 61 0 56 1 57 0 l 182 0 b 188 6 186 0 188 1 l 188 358 b 199 363 188 364 194 367 l 574 -10 l 722 -157 b 1008 -276 800 -235 903 -276 b 1125 -258 1051 -276 1090 -271 l 1139 -254 b 1228 -199 1172 -243 1206 -226 b 1246 -99 1250 -171 1261 -131 b 1175 -58 1233 -72 1204 -58 b 1132 -72 1158 -58 1144 -62 b 1143 -206 1088 -106 1088 -183 b 1143 -218 1149 -210 1149 -214 b 1071 -231 1121 -228 1097 -231 b 907 -158 1008 -226 950 -201 l 326 415 b 326 425 324 419 324 422 b 692 696 365 453 586 618 b 688 707 697 700 694 707 l 632 707 l 628 707 l 197 393 b 188 397 193 389 188 393 l 188 1035 b 182 1040 188 1039 186 1040 l 61 1040 z "},"":{"ha":257,"x_min":0,"x_max":0,"o":"m -847 1108 b -894 1013 -885 1093 -906 1050 b -800 961 -882 975 -837 951 b -744 1047 -762 971 -739 1010 b -735 1054 -744 1053 -739 1058 b -660 1008 -708 1039 -686 1024 b -482 971 -606 981 -544 971 b -369 981 -443 971 -407 975 b -81 1029 -269 996 -181 1019 l -35 1033 b 69 933 22 1033 69 993 l 69 6 b 76 0 69 1 72 0 l 196 0 b 201 6 200 0 201 1 l 201 960 b 124 1058 201 1008 169 1047 b -32 1071 69 1069 18 1074 b -321 1026 -132 1065 -225 1043 b -444 1010 -364 1019 -401 1014 b -653 1047 -512 1004 -593 1007 b -815 1114 -697 1076 -760 1114 b -847 1108 -831 1114 -840 1113 z "},"":{"ha":1178,"x_min":0,"x_max":0,"o":"m 56 6 b 63 0 56 1 58 0 l 182 0 b 188 6 186 0 188 1 l 188 539 b 189 543 188 540 188 542 b 388 647 244 608 321 647 b 524 410 493 647 524 567 l 524 6 b 529 0 524 1 525 0 l 649 0 b 656 6 653 0 656 1 l 656 418 b 650 526 656 461 654 494 b 649 533 649 528 649 529 b 856 647 706 604 785 647 b 992 410 961 647 992 567 l 992 401 b 989 143 992 313 989 232 b 1186 -282 989 -117 992 -256 b 1315 -231 1235 -289 1297 -285 b 1315 -175 1322 -212 1322 -193 b 1243 -126 1303 -143 1275 -126 b 1197 -140 1225 -126 1210 -131 b 1167 -212 1176 -156 1165 -186 b 1156 -217 1167 -218 1160 -221 b 1124 -94 1129 -185 1125 -129 l 1124 171 l 1124 418 b 918 708 1124 633 1072 708 b 644 592 824 708 722 663 b 635 594 639 586 636 588 b 449 708 607 678 550 708 b 197 610 365 708 271 669 b 188 614 193 606 188 608 l 188 701 b 182 708 188 706 186 708 l 63 708 b 56 701 58 708 56 706 z "},"":{"ha":749,"x_min":0,"x_max":0,"o":"m 56 6 b 61 0 56 1 57 0 l 181 0 b 188 6 185 0 188 1 l 188 539 b 189 543 188 540 188 542 b 417 646 250 608 343 646 b 563 410 560 646 563 521 l 563 83 b 610 -207 563 -12 550 -125 b 757 -282 644 -256 700 -275 b 886 -231 806 -289 865 -285 b 886 -175 893 -212 893 -193 b 814 -126 874 -143 846 -126 b 732 -214 765 -126 732 -165 b 721 -218 732 -221 725 -222 b 694 -133 703 -192 694 -164 b 694 224 690 -11 694 106 l 694 418 b 481 708 694 633 649 708 b 197 608 386 708 276 668 b 188 614 193 604 188 608 l 188 701 b 181 708 188 706 185 708 l 64 708 b 57 701 60 708 57 706 b 56 6 57 594 56 200 z "},"":{"ha":829,"x_min":0,"x_max":0,"o":"m -22 907 b -56 806 -57 886 -72 840 b 264 707 -18 721 188 711 b 621 569 394 703 539 685 b 683 303 672 492 689 397 b 421 15 672 136 575 4 b 158 394 243 26 147 201 b 324 671 168 522 224 631 b 322 683 331 675 329 682 l 282 686 b 25 346 133 638 25 513 b 421 -14 25 129 207 -14 b 815 346 632 -14 815 129 b 650 643 815 468 756 578 b 235 749 517 728 383 738 b 72 772 179 754 126 760 b 68 781 68 774 67 776 b 69 783 68 782 69 782 b 81 881 93 810 99 849 b 13 915 65 903 39 915 b -22 907 0 915 -11 913 z "},"":{"ha":767,"x_min":0,"x_max":0,"o":"m -136 -293 b -136 -350 -143 -312 -143 -332 b -18 -408 -118 -399 -64 -412 b 163 -282 60 -403 135 -356 b 186 -129 181 -233 182 -181 b 188 35 190 -75 188 -19 b 197 40 188 39 193 44 b 392 -14 251 6 321 -14 b 753 346 606 -14 753 135 b 421 707 753 549 614 696 b 396 708 411 707 406 708 b 199 647 331 708 250 690 b 189 651 194 643 189 647 l 189 701 b 183 707 189 706 188 707 l 64 707 b 57 701 60 707 57 706 l 57 -60 b 56 -253 58 -125 60 -187 b 29 -336 54 -281 46 -308 b 18 -333 25 -342 18 -339 b -64 -246 17 -285 -14 -246 b -136 -293 -96 -246 -124 -261 z m 190 114 b 189 118 189 115 189 117 l 189 576 b 190 581 189 578 189 579 b 351 657 231 629 286 657 b 618 307 529 657 618 474 b 385 33 618 151 544 33 b 190 114 307 33 236 64 z "},"":{"ha":765,"x_min":0,"x_max":0,"o":"m 358 714 b 26 351 165 703 26 556 b 388 -8 26 140 174 -8 b 582 46 458 -8 528 13 b 592 40 586 50 592 46 b 593 -124 590 -14 589 -68 b 617 -275 597 -174 599 -226 b 797 -401 644 -353 719 -397 b 915 -344 843 -406 897 -393 b 915 -287 922 -326 922 -307 b 843 -239 903 -256 875 -239 b 797 -254 828 -239 813 -244 b 761 -328 779 -265 763 -285 b 750 -331 761 -333 754 -336 b 724 -246 733 -303 725 -275 b 722 -54 719 -181 721 -119 l 722 707 b 715 714 722 711 719 714 l 596 714 b 590 707 592 714 590 711 l 590 658 b 581 653 590 653 585 649 b 358 714 518 703 436 714 z m 161 313 b 428 663 161 479 250 663 b 589 586 493 663 549 635 b 590 582 590 585 590 583 l 590 125 b 589 121 590 124 590 122 b 394 39 543 71 472 39 b 161 313 235 39 161 157 z "},"":{"ha":610,"x_min":0,"x_max":0,"o":"m 67 708 b 56 696 60 708 56 704 l 56 11 b 58 3 56 7 57 4 b 69 0 60 1 64 0 l 176 0 b 188 11 183 0 188 4 l 188 428 b 208 478 188 450 190 463 b 325 579 246 515 282 550 b 404 618 349 596 375 613 b 469 572 442 624 453 601 b 515 539 479 554 494 543 b 576 675 596 521 636 631 l 576 676 b 464 706 542 694 503 706 b 390 692 435 706 410 701 b 201 521 307 657 265 581 b 192 517 197 517 194 515 b 188 526 189 518 188 521 l 188 693 b 183 706 188 697 188 704 b 175 708 182 707 179 708 l 67 708 z "},"":{"ha":586,"x_min":0,"x_max":0,"o":"m 53 208 b 13 110 15 192 -3 147 b 196 0 35 50 142 14 b 358 -11 253 -12 307 -17 b 585 171 460 0 585 50 b 129 569 585 406 129 414 b 235 664 129 625 185 657 b 396 642 292 674 346 667 b 425 625 407 638 417 632 b 510 532 463 601 489 569 b 517 513 510 531 513 525 b 526 510 518 510 521 508 b 536 515 531 511 533 513 b 539 522 539 517 540 518 b 493 610 528 554 514 583 b 260 706 439 682 349 710 b 7 528 156 701 7 653 b 458 133 7 296 458 293 b 453 101 458 118 457 108 b 322 25 435 50 374 29 b 128 63 257 21 188 31 b 128 74 124 67 124 71 b 153 174 160 94 171 140 b 83 215 138 200 111 215 b 53 208 76 215 67 213 z "},"":{"ha":371,"x_min":0,"x_max":0,"o":"m -325 907 b -358 806 -360 886 -375 840 b -279 744 -343 774 -311 756 b 54 708 -172 707 -57 708 b 60 703 58 708 60 707 l 60 176 b 236 -14 60 60 114 -14 b 410 104 336 -14 381 32 b 406 113 411 108 410 111 l 390 118 l 386 118 b 379 115 382 119 381 118 b 278 33 356 58 317 33 b 204 75 239 33 217 49 b 192 151 196 96 192 121 l 192 703 b 199 708 192 707 194 708 l 342 708 b 347 715 346 708 347 711 l 347 744 b 342 750 347 749 346 750 l 199 750 b 192 757 194 750 192 753 l 192 889 b 186 896 192 893 190 896 l 176 896 b 171 890 172 896 171 894 b -65 753 142 783 35 753 b -226 774 -119 753 -175 761 b -229 783 -231 775 -232 779 b -222 881 -203 817 -206 854 b -290 915 -237 903 -264 915 b -325 907 -303 915 -314 913 z "},"":{"ha":742,"x_min":0,"x_max":0,"o":"m 63 710 b 56 704 58 710 56 708 l 56 267 b 271 -14 56 53 100 -14 b 553 85 365 -14 474 25 b 560 85 554 86 557 86 b 757 -289 560 -151 572 -262 b 889 -231 806 -296 874 -290 b 892 -199 892 -217 893 -206 b 814 -133 885 -158 851 -133 b 733 -212 769 -133 738 -168 b 721 -214 732 -218 725 -219 b 694 -46 694 -168 694 -97 b 694 156 693 21 694 88 l 694 704 b 688 710 694 708 692 710 b 568 711 671 710 618 710 b 563 704 564 711 563 708 l 563 154 b 561 150 563 153 563 151 b 335 47 501 86 407 47 b 239 82 292 47 260 58 b 188 276 200 117 188 171 l 188 704 b 182 710 188 708 186 710 l 63 710 z "},"":{"ha":646,"x_min":0,"x_max":0,"o":"m -328 835 b -239 758 -328 790 -283 751 b -187 883 -185 765 -151 840 b -183 894 -192 889 -189 896 b -28 781 -112 889 -62 840 b 76 531 18 703 42 614 b 153 343 103 469 126 404 l 288 4 b 293 1 289 3 292 1 l 369 1 b 375 4 371 1 374 3 l 642 700 b 636 708 646 704 640 708 l 594 708 b 589 706 593 708 590 707 b 378 154 522 536 408 225 b 367 154 376 149 368 149 l 364 160 b 250 457 325 260 285 357 b 3 869 197 603 132 781 b -193 929 -47 907 -131 929 b -328 835 -250 929 -324 903 z "},"":{"ha":1051,"x_min":0,"x_max":0,"o":"m -329 829 b -240 753 -329 785 -285 746 b -189 878 -186 760 -153 835 b -185 889 -193 883 -190 890 b -29 775 -114 883 -64 835 b 128 407 38 663 79 529 b 279 3 179 268 225 138 b 285 -1 279 0 281 -1 l 361 -1 b 368 3 364 -1 367 0 l 522 403 b 533 403 524 408 532 408 l 693 3 b 699 -1 694 0 696 -1 l 776 -1 b 782 3 778 -1 781 0 l 838 149 b 1047 707 900 319 999 576 b 1042 715 1049 713 1046 715 l 1000 715 b 993 713 997 715 994 714 b 785 154 928 538 807 200 b 774 154 783 149 775 149 b 554 713 747 228 621 542 b 549 715 554 714 553 715 l 419 715 b 414 707 414 715 413 713 l 497 492 l 497 488 l 371 154 b 358 154 367 149 363 149 b 210 532 310 282 260 404 b 1 864 161 654 117 786 b -194 924 -49 901 -132 924 b -329 829 -251 924 -325 897 z "},"":{"ha":592,"x_min":0,"x_max":0,"o":"m 10 708 b 4 699 4 708 0 703 b 240 325 75 581 221 360 b 240 318 242 324 242 321 l 4 10 b 10 0 0 6 4 0 l 60 0 b 65 3 61 0 64 1 l 267 268 b 276 267 271 272 275 272 l 292 246 l 301 228 b 407 64 336 174 369 119 l 443 3 b 506 -94 464 -29 483 -62 b 600 -204 533 -135 561 -171 b 872 -290 678 -264 772 -297 b 885 -289 876 -290 881 -289 b 986 -254 922 -285 957 -276 b 1025 -160 1014 -232 1035 -197 b 949 -101 1018 -126 983 -101 b 922 -107 938 -101 929 -103 b 901 -242 871 -132 850 -208 b 899 -253 906 -246 904 -253 b 825 -249 872 -257 851 -254 b 682 -139 764 -232 717 -196 b 560 63 639 -68 599 0 b 382 354 493 169 419 294 b 365 382 372 367 369 376 b 365 389 364 385 364 388 b 588 701 406 444 519 611 b 583 711 592 706 588 711 l 542 711 b 536 710 539 711 538 711 b 339 438 494 646 368 478 b 329 438 335 433 331 433 l 160 706 b 156 708 160 707 158 708 l 10 708 z "},"":{"ha":640,"x_min":0,"x_max":0,"o":"m 11 710 b 4 701 4 710 3 707 l 274 32 l 274 31 b 274 -65 286 -1 286 -33 l 247 -133 b 193 -274 232 -174 214 -225 b 182 -275 192 -282 188 -282 b 114 -239 164 -249 140 -239 b 83 -244 100 -239 90 -240 b 38 -340 46 -260 26 -303 b 128 -393 49 -378 90 -403 b 224 -292 176 -382 206 -335 b 365 21 272 -186 319 -85 b 435 188 389 75 413 131 b 636 701 501 361 569 528 b 631 710 638 707 635 710 l 589 710 b 582 706 585 710 583 708 l 581 700 b 444 354 543 603 489 465 b 371 165 411 265 382 197 b 360 165 365 160 361 160 l 357 172 b 143 706 324 254 206 556 b 138 710 142 708 139 710 l 11 710 z "},"":{"ha":665,"x_min":0,"x_max":0,"o":"m 13 606 b 49 503 -3 567 14 521 b 82 494 60 497 71 494 b 151 533 110 494 136 507 b 131 638 172 567 163 614 b 133 647 125 642 126 646 b 310 671 193 664 254 671 b 463 657 381 671 439 661 b 465 647 469 656 469 651 l 26 10 b 32 0 22 6 28 0 l 631 0 b 636 6 635 0 636 1 l 636 44 b 631 51 636 49 635 51 l 229 51 b 224 61 224 51 219 57 l 661 699 b 657 708 665 703 661 708 l 464 708 b 274 706 399 708 336 710 b 13 606 206 701 46 682 z "},"©":{"ha":575,"x_min":0,"x_max":0,"o":"m 56 740 b 288 507 56 613 160 507 b 519 740 415 507 519 613 b 288 972 519 869 415 972 b 56 740 160 972 56 869 z m 81 740 b 288 947 81 854 172 947 b 494 740 403 947 494 854 b 288 532 494 626 403 532 b 81 740 172 532 81 626 z m 161 740 l 161 735 l 161 731 b 163 726 161 729 161 728 b 165 706 163 722 164 715 b 168 696 165 707 167 703 l 171 686 b 172 683 172 685 172 685 b 174 681 172 682 172 681 b 175 678 174 679 174 679 b 178 674 175 676 176 675 b 196 646 182 664 188 656 l 200 643 b 203 640 200 642 201 640 l 204 639 b 213 631 207 638 210 635 b 218 628 217 631 214 629 b 224 626 219 626 221 626 b 229 622 225 624 226 622 l 232 619 b 235 618 233 619 235 619 b 247 614 242 614 242 615 l 250 614 b 268 608 257 610 263 613 l 271 608 b 274 607 272 608 272 608 l 279 607 b 283 606 281 606 282 606 l 286 606 l 292 606 b 343 611 310 606 326 610 b 371 619 353 615 361 615 l 374 622 b 372 660 374 633 372 649 b 365 661 371 664 368 664 b 296 625 353 633 331 625 b 207 740 244 625 207 668 b 296 857 207 814 244 857 b 365 821 328 857 347 849 b 371 822 369 817 371 821 b 374 858 372 833 374 843 b 371 863 374 861 372 863 b 292 876 347 872 321 876 l 286 876 b 283 875 285 875 285 875 l 279 875 l 274 875 b 271 874 272 875 271 875 l 268 874 b 254 871 258 872 254 871 b 250 869 253 869 251 869 b 247 867 250 868 247 868 b 243 865 246 867 244 865 l 240 865 b 235 864 240 864 239 864 b 232 863 235 863 233 863 b 229 861 231 861 231 861 b 224 857 228 857 225 858 b 221 856 222 856 222 856 b 219 854 219 856 219 856 b 194 835 213 850 204 844 l 192 831 b 178 811 186 825 182 818 b 175 806 178 810 176 807 b 174 801 175 803 175 801 b 171 794 172 800 171 797 b 168 786 169 793 168 790 l 168 785 b 167 781 168 783 167 782 b 165 776 167 779 165 778 b 164 771 165 772 165 771 b 161 753 164 764 165 757 l 161 751 l 161 746 z "},"®":{"ha":583,"x_min":0,"x_max":0,"o":"m 56 736 b 292 500 56 607 163 500 b 528 736 421 500 528 607 b 292 971 528 864 421 971 b 56 736 163 971 56 864 z m 292 533 b 90 736 181 533 90 624 b 292 936 90 849 181 936 b 494 736 403 936 494 849 b 292 533 494 624 403 533 z m 210 617 l 253 617 l 253 738 l 278 738 l 354 640 b 375 621 364 631 371 624 b 390 618 385 619 389 618 b 397 617 392 617 393 617 l 410 617 l 433 617 l 433 626 b 393 658 417 628 411 635 l 329 740 b 390 803 369 749 390 769 b 296 868 390 846 358 868 l 210 868 z m 253 846 l 290 846 b 346 803 328 846 346 832 b 290 761 346 775 328 761 l 253 761 z "},"!":{"ha":251,"x_min":0,"x_max":0,"o":"m 126 910 b 60 825 92 910 54 882 l 103 261 b 126 228 104 238 115 228 b 151 261 138 228 150 238 l 193 825 b 126 910 197 882 164 910 z m 128 140 b 58 71 89 140 58 110 b 128 1 58 31 89 1 b 196 71 165 1 196 31 b 128 140 196 110 165 140 z "},"\"":{"ha":393,"x_min":0,"x_max":0,"o":"m 57 732 b 76 700 56 711 65 700 b 107 732 88 700 101 711 l 175 965 b 169 972 176 969 175 972 l 78 972 b 72 967 74 972 72 971 z m 218 732 b 236 700 217 711 226 700 b 267 732 247 700 261 711 l 335 965 b 329 972 336 969 335 972 l 239 972 b 232 967 235 972 232 971 z "},"#":{"ha":890,"x_min":0,"x_max":0,"o":"m 56 250 l 244 250 b 250 242 249 250 251 247 l 176 19 b 182 11 175 14 176 11 l 224 11 b 229 15 225 11 228 13 l 306 246 b 311 250 308 249 310 250 l 485 249 b 490 240 489 249 492 246 l 415 19 b 422 11 415 14 418 11 l 463 11 b 469 15 465 11 468 13 l 546 244 b 551 249 546 247 547 249 l 749 249 b 754 253 753 249 754 250 l 768 292 b 763 300 769 297 767 300 l 572 300 b 567 308 567 300 565 303 l 621 474 b 628 478 622 476 624 478 l 813 478 b 819 482 814 478 817 479 l 832 521 b 826 529 833 526 831 529 l 649 529 b 643 538 643 529 642 532 l 718 761 b 711 769 719 767 717 769 l 671 769 b 664 764 667 769 665 768 l 588 533 b 582 529 588 531 586 529 l 410 531 b 403 539 403 531 401 533 l 478 761 b 471 769 479 767 476 769 l 431 769 b 425 764 426 769 425 768 l 347 535 b 342 531 347 532 346 531 l 142 531 b 136 526 140 531 139 529 l 122 486 b 128 478 121 481 122 478 l 319 478 b 326 469 325 478 328 475 l 272 306 b 265 301 271 303 268 301 l 76 301 b 71 297 72 301 71 300 z m 333 301 b 328 310 328 301 326 304 l 382 474 b 388 478 382 476 383 478 l 560 478 b 565 469 564 478 567 475 l 511 304 b 504 300 510 301 507 300 z "},"$":{"ha":750,"x_min":0,"x_max":0,"o":"m 58 233 b 56 225 57 232 56 229 l 69 190 b 163 67 93 142 122 101 b 364 0 228 15 286 4 b 369 -7 368 0 369 -3 l 365 -106 b 372 -112 365 -110 368 -112 l 414 -112 b 419 -106 418 -112 419 -110 l 417 -8 b 422 -1 417 -4 418 -1 b 694 229 578 6 694 85 b 476 492 694 356 588 425 b 467 486 472 496 467 492 l 467 349 b 469 343 467 347 468 344 b 576 189 531 300 576 254 b 424 44 576 111 518 57 b 415 50 419 44 417 46 b 411 447 413 182 411 314 b 415 856 411 585 413 721 b 422 863 417 860 419 863 b 629 708 532 856 586 804 b 639 706 633 704 636 703 b 664 724 649 711 654 718 b 667 732 667 726 668 729 b 424 906 617 828 536 899 b 418 913 419 907 417 908 b 419 990 418 939 418 964 b 414 996 419 994 418 996 l 372 996 b 365 990 368 996 365 994 b 368 913 367 964 368 939 b 363 907 368 908 367 907 b 110 686 225 900 110 819 b 304 443 110 574 201 506 b 314 449 311 442 314 444 l 314 588 b 311 593 314 589 313 592 b 222 731 257 632 222 676 b 363 861 222 801 279 851 b 369 856 367 863 369 861 b 375 446 374 717 375 585 b 369 50 375 313 374 183 b 363 44 369 44 367 43 b 94 246 219 50 149 119 b 86 249 93 250 90 250 b 58 233 76 243 68 238 z "},"%":{"ha":850,"x_min":0,"x_max":0,"o":"m 239 908 b 56 718 135 908 56 824 b 239 528 56 613 135 528 b 421 718 340 528 421 613 b 376 843 421 767 404 810 b 383 853 372 847 376 854 b 525 839 424 843 471 839 b 669 857 579 839 628 844 b 676 847 675 858 681 851 l 92 21 b 97 11 88 17 92 11 l 143 11 b 149 14 144 11 147 13 l 765 885 b 760 896 769 889 765 896 l 711 896 b 525 864 653 875 590 864 b 299 897 447 864 371 876 b 239 908 275 904 254 908 z m 429 190 b 613 -1 429 85 508 -1 b 794 190 714 -1 794 85 b 613 379 794 296 714 379 b 429 190 508 379 429 296 z m 529 190 b 614 358 529 290 563 358 b 699 190 665 358 699 290 b 614 22 699 90 665 22 b 529 190 563 22 529 90 z m 240 550 b 156 718 189 550 156 618 b 240 886 156 818 189 886 b 325 718 290 886 325 818 b 240 550 325 618 290 550 z "},"&":{"ha":1001,"x_min":0,"x_max":0,"o":"m 272 501 b 57 242 122 446 56 353 b 389 -4 57 103 193 -4 b 614 53 476 -4 551 15 b 621 53 617 54 619 54 b 711 -12 653 26 682 6 b 714 -14 713 -12 713 -12 l 939 -14 b 946 -7 943 -14 946 -11 l 946 1 b 940 8 946 6 944 7 b 707 125 863 19 790 58 b 706 133 704 126 704 129 b 776 363 753 194 776 271 b 764 478 776 385 771 446 b 756 482 764 482 761 483 l 729 471 b 725 464 726 469 725 467 b 739 347 735 426 739 374 b 682 157 739 275 719 208 b 672 156 678 153 675 153 l 633 194 b 407 499 543 285 469 388 b 410 507 406 503 406 506 b 625 797 564 592 625 704 b 429 974 625 897 557 974 b 213 753 301 974 213 886 b 265 533 213 688 232 617 b 275 510 269 526 271 519 b 272 501 276 506 276 503 z m 178 285 b 281 476 178 363 224 428 b 290 475 285 481 289 481 b 585 85 357 335 471 188 b 585 75 589 81 589 76 b 424 35 539 49 485 35 b 178 285 289 35 178 135 z m 392 529 b 315 789 346 624 315 711 b 429 950 315 894 372 950 b 536 794 483 950 536 900 b 401 526 536 700 496 597 b 392 529 396 525 393 525 z "},"'":{"ha":233,"x_min":0,"x_max":0,"o":"m 57 726 b 76 694 56 706 65 694 b 107 726 88 694 101 706 l 175 960 b 169 967 176 964 175 967 l 78 967 b 72 961 74 967 72 965 l 57 726 z "},"(":{"ha":376,"x_min":0,"x_max":0,"o":"m 56 379 b 279 -144 56 207 131 32 b 283 -147 279 -146 281 -147 l 314 -147 b 319 -139 318 -147 321 -144 b 188 379 232 32 188 206 b 318 896 188 553 229 728 b 314 906 322 900 318 906 l 283 906 b 279 903 281 906 279 904 b 56 379 131 726 56 551 z "},")":{"ha":378,"x_min":0,"x_max":0,"o":"m 58 -137 b 64 -147 54 -142 58 -147 l 93 -147 b 97 -144 96 -147 97 -146 b 322 379 247 32 322 206 b 97 903 322 550 247 725 b 93 906 97 904 96 906 l 64 906 b 58 896 58 906 54 900 b 189 379 147 728 189 553 b 58 -137 189 206 147 36 z "},"*":{"ha":511,"x_min":0,"x_max":0,"o":"m 63 878 b 56 857 58 871 56 864 b 79 824 56 842 64 831 l 217 757 l 218 757 l 79 688 b 57 654 64 682 57 671 b 63 635 57 647 58 642 b 90 621 69 625 78 621 b 119 632 100 621 110 625 l 240 743 l 242 743 b 239 731 240 742 239 738 l 218 582 b 256 538 214 560 232 538 b 293 582 278 538 297 560 l 274 731 b 271 743 274 738 272 742 l 272 743 l 393 632 b 421 619 401 624 411 619 b 449 635 432 619 442 625 b 456 656 453 642 456 649 b 431 688 456 669 447 681 l 293 757 l 294 757 l 431 824 b 456 857 447 831 456 842 b 424 892 456 874 442 892 b 393 879 411 892 401 888 l 272 768 l 271 768 b 274 781 272 775 274 779 l 293 929 b 256 974 297 953 278 974 b 218 929 232 974 214 953 l 239 781 b 242 768 239 779 240 775 l 240 768 l 118 879 b 89 892 108 888 99 892 b 63 878 78 892 69 888 z "},"+":{"ha":674,"x_min":0,"x_max":0,"o":"m 56 385 l 306 385 l 306 121 l 368 121 l 368 385 l 618 385 l 618 446 l 368 446 l 368 683 l 306 683 l 306 446 l 56 446 z "},",":{"ha":250,"x_min":0,"x_max":0,"o":"m 56 71 b 106 3 56 39 76 13 b 132 -53 122 -3 132 -26 b 106 -135 132 -82 124 -108 l 110 -135 b 194 58 147 -97 194 -6 b 125 139 194 99 169 139 b 56 71 85 139 56 108 z "},"-":{"ha":526,"x_min":0,"x_max":0,"o":"m 471 392 l 471 446 l 56 446 l 56 392 z "},".":{"ha":249,"x_min":0,"x_max":0,"o":"m 56 71 b 125 1 56 32 88 1 b 193 71 163 1 193 32 b 125 140 193 110 163 140 b 56 71 88 140 56 110 z "},"/":{"ha":624,"x_min":0,"x_max":0,"o":"m 511 908 l 56 -137 l 114 -137 l 568 908 z "},":":{"ha":247,"x_min":0,"x_max":0,"o":"m 125 746 b 56 678 86 746 56 717 b 125 608 56 639 86 608 b 192 678 163 608 192 639 b 125 746 192 717 163 746 z m 56 168 b 125 99 56 128 86 99 b 192 168 163 99 192 128 b 125 236 192 206 163 236 b 56 168 86 236 56 206 z "},";":{"ha":250,"x_min":0,"x_max":0,"o":"m 125 215 b 56 147 85 215 56 185 b 106 79 56 115 76 89 b 132 24 122 74 132 50 b 106 -58 132 -6 124 -32 l 110 -58 b 194 135 147 -21 194 71 b 125 215 194 175 169 215 z m 125 725 b 56 657 86 725 56 696 b 125 588 56 618 86 588 b 192 657 163 588 192 618 b 125 725 192 696 163 725 z "},"<":{"ha":692,"x_min":0,"x_max":0,"o":"m 126 374 l 636 119 l 636 194 l 196 413 l 636 631 l 636 706 l 126 451 l 56 413 z "},"=":{"ha":674,"x_min":0,"x_max":0,"o":"m 56 540 l 56 478 l 618 478 l 618 540 z m 618 303 l 618 364 l 56 364 l 56 303 z "},">":{"ha":692,"x_min":0,"x_max":0,"o":"m 56 711 l 56 636 l 496 418 l 56 200 l 56 125 l 565 379 l 636 418 l 565 457 z "},"?":{"ha":564,"x_min":0,"x_max":0,"o":"m 56 772 b 58 765 56 769 57 767 l 75 754 b 85 757 79 751 83 753 b 303 874 115 840 217 892 b 401 714 376 858 401 779 b 231 253 401 515 231 424 b 256 222 231 232 243 222 b 279 253 267 222 279 232 b 297 333 279 281 286 307 b 508 711 349 460 508 556 b 285 910 508 839 403 910 b 56 772 190 910 93 865 z m 188 71 b 257 1 188 31 217 1 b 325 71 294 1 325 31 b 257 140 325 110 294 140 b 188 71 217 140 188 110 z "},"@":{"ha":1117,"x_min":0,"x_max":0,"o":"m 56 299 b 597 -214 56 42 247 -214 b 978 -71 747 -214 889 -165 b 974 -60 982 -67 978 -60 l 931 -60 b 925 -62 929 -60 926 -61 b 592 -171 847 -140 731 -171 b 103 299 275 -171 103 63 b 593 793 103 544 271 793 b 1021 378 814 793 1021 658 b 797 42 1021 257 947 42 b 731 242 701 42 697 114 l 819 582 b 814 589 821 586 819 589 l 721 589 b 715 585 717 589 715 588 l 707 551 b 696 549 706 544 701 543 b 600 594 669 576 638 594 b 329 229 428 594 329 392 b 485 13 329 107 381 13 b 619 114 539 13 586 58 b 631 111 625 119 629 118 b 779 -3 646 43 701 -3 b 1061 382 944 -3 1061 200 b 589 835 1061 688 828 835 b 56 299 239 835 56 564 z m 488 54 b 428 161 454 54 428 93 b 615 560 428 322 506 560 b 689 485 647 560 679 522 l 689 482 l 658 356 b 488 54 639 288 583 54 z "},"[":{"ha":336,"x_min":0,"x_max":0,"o":"m 56 906 l 56 -147 l 281 -147 l 281 -111 l 168 -111 l 168 868 l 281 868 l 281 906 z "},"\\":{"ha":561,"x_min":0,"x_max":0,"o":"m 114 908 l 56 908 l 447 -137 l 506 -137 z "},"]":{"ha":336,"x_min":0,"x_max":0,"o":"m 168 868 l 168 -111 l 56 -111 l 56 -147 l 281 -147 l 281 906 l 56 906 l 56 868 z "},"^":{"ha":408,"x_min":0,"x_max":0,"o":"m 117 710 l 204 906 l 292 710 l 353 710 l 203 1053 l 179 994 l 56 710 z "},"`":{"ha":328,"x_min":0,"x_max":0,"o":"m 58 1057 b 75 1017 58 1042 64 1029 l 239 844 l 275 844 l 174 1064 b 115 1103 161 1093 138 1103 b 58 1057 86 1103 58 1083 z "},"{":{"ha":397,"x_min":0,"x_max":0,"o":"m 151 556 b 56 419 151 493 138 442 b 151 285 133 399 151 350 b 150 40 151 201 150 124 b 342 -103 150 -65 214 -112 l 342 -86 b 260 17 288 -85 260 -46 b 267 274 260 100 267 185 b 135 419 267 342 239 401 b 265 567 239 440 265 499 b 261 824 265 610 261 797 b 342 925 261 886 288 924 l 342 943 b 150 800 214 953 150 904 b 151 556 150 717 151 639 z "},"|":{"ha":165,"x_min":0,"x_max":0,"o":"m 110 -147 l 110 906 l 56 906 l 56 -147 z "},"}":{"ha":397,"x_min":0,"x_max":0,"o":"m 246 800 b 56 943 246 906 182 953 l 56 925 b 135 824 110 924 135 886 b 131 567 135 797 131 610 b 261 419 131 496 160 442 b 131 274 160 401 131 342 b 135 17 131 185 135 100 b 56 -86 135 -46 110 -85 l 56 -103 b 246 40 182 -112 246 -65 b 244 285 246 124 244 201 b 342 419 244 350 263 401 b 244 556 260 442 244 493 b 246 800 244 639 246 717 z "},"~":{"ha":653,"x_min":0,"x_max":0,"o":"m 56 383 b 171 431 93 418 132 431 b 483 335 275 431 376 335 b 597 383 522 335 560 349 l 597 450 b 483 401 560 413 522 401 b 171 499 376 401 275 499 b 56 450 132 499 93 482 l 56 383 z "},"™":{"ha":760,"x_min":0,"x_max":0,"o":"m 381 964 b 376 960 378 964 376 963 l 376 647 b 381 642 376 643 378 642 l 396 642 b 401 647 400 642 401 643 l 401 868 b 411 871 401 874 407 875 l 508 644 b 514 642 510 643 513 642 l 539 642 b 543 644 540 642 542 643 l 649 881 b 657 878 654 888 657 886 l 657 647 b 663 642 657 643 658 642 l 699 642 b 704 647 703 642 704 643 l 704 960 b 699 964 704 963 703 964 l 661 964 b 656 960 658 964 657 963 l 542 704 b 532 704 540 700 536 700 l 419 960 b 415 964 418 963 417 964 z m 61 964 b 56 960 57 964 56 963 l 56 946 b 61 940 56 942 57 940 l 151 940 b 156 935 154 940 156 939 l 156 647 b 161 642 156 643 157 642 l 197 642 b 203 647 201 642 203 643 l 203 935 b 207 940 203 939 204 940 l 299 940 b 304 946 303 940 304 942 l 304 960 b 299 964 304 963 303 964 z "},"´":{"ha":329,"x_min":0,"x_max":0,"o":"m 50 844 l 86 844 l 250 1017 b 268 1057 263 1029 268 1042 b 210 1103 268 1083 242 1103 b 151 1064 186 1103 164 1092 z "},"¨":{"ha":450,"x_min":0,"x_max":0,"o":"m 56 918 b 129 844 56 875 86 844 b 203 918 169 844 203 875 b 125 992 203 961 168 992 b 56 918 85 992 56 957 z m 247 918 b 321 844 247 875 281 844 b 394 918 361 844 394 875 b 321 990 394 958 361 990 b 247 918 281 990 247 958 z "},"≠":{"ha":890,"x_min":0,"x_max":0,"o":"m 56 250 l 244 250 b 250 242 249 250 251 247 l 176 19 b 182 11 175 14 176 11 l 224 11 b 229 15 225 11 228 13 l 306 246 b 311 250 308 249 310 250 l 485 249 b 490 240 489 249 492 246 l 415 19 b 422 11 415 14 418 11 l 463 11 b 469 15 465 11 468 13 l 546 244 b 551 249 546 247 547 249 l 749 249 b 754 253 753 249 754 250 l 768 292 b 763 300 769 297 767 300 l 572 300 b 567 308 567 300 565 303 l 621 474 b 628 478 622 476 624 478 l 813 478 b 819 482 814 478 817 479 l 832 521 b 826 529 833 526 831 529 l 649 529 b 643 538 643 529 642 532 l 718 761 b 711 769 719 767 717 769 l 671 769 b 664 764 667 769 665 768 l 588 533 b 582 529 588 531 586 529 l 410 531 b 403 539 403 531 401 533 l 478 761 b 471 769 479 767 476 769 l 431 769 b 425 764 426 769 425 768 l 347 535 b 342 531 347 532 346 531 l 142 531 b 136 526 140 531 139 529 l 122 486 b 128 478 121 481 122 478 l 319 478 b 326 469 325 478 328 475 l 272 306 b 265 301 271 303 268 301 l 76 301 b 71 297 72 301 71 300 z m 333 301 b 328 310 328 301 326 304 l 382 474 b 388 478 382 476 383 478 l 560 478 b 565 469 564 478 567 475 l 511 304 b 504 300 510 301 507 300 z "},"ˆ":{"ha":429,"x_min":0,"x_max":0,"o":"m 56 844 l 90 844 l 215 1006 l 339 844 l 374 844 l 268 1071 b 214 1103 258 1089 242 1103 b 161 1071 189 1103 171 1092 z "},"˚":{"ha":482,"x_min":0,"x_max":0,"o":"m 56 876 b 242 692 56 775 138 692 b 426 876 343 692 426 775 b 242 1063 426 981 343 1063 b 56 876 138 1063 56 981 z m 242 742 b 108 876 168 742 108 803 b 242 1010 108 950 168 1010 b 374 876 315 1010 374 950 b 242 742 374 803 315 742 z "},"˜":{"ha":542,"x_min":0,"x_max":0,"o":"m 90 857 b 135 903 90 892 107 903 b 396 844 197 903 314 844 b 486 957 447 844 486 869 l 453 957 b 407 913 453 924 435 913 b 147 971 344 913 228 971 b 56 857 93 971 56 946 z "},"˘":{"ha":429,"x_min":0,"x_max":0,"o":"m 161 875 b 214 844 171 854 188 844 b 268 875 242 844 258 858 l 374 1103 l 339 1103 l 215 942 l 92 1103 l 56 1103 z "},"ˇ":{"ha":429,"x_min":0,"x_max":0,"o":"m 161 876 b 214 846 171 856 188 846 b 268 876 242 846 258 860 l 374 1104 l 339 1104 l 215 943 l 92 1104 l 56 1104 z "},"¸":{"ha":343,"x_min":0,"x_max":0,"o":"m 56 -219 b 165 -268 83 -253 126 -268 b 288 -160 231 -268 288 -231 b 176 -53 288 -121 260 -79 l 213 22 l 169 22 l 113 -96 b 208 -178 179 -106 208 -143 b 147 -233 208 -210 186 -233 b 65 -203 125 -233 97 -225 z "},"˝":{"ha":585,"x_min":0,"x_max":0,"o":"m 56 844 l 92 844 l 256 1017 b 274 1057 268 1029 274 1042 b 215 1103 274 1083 247 1103 b 157 1064 192 1103 169 1092 z m 311 844 l 347 844 l 511 1017 b 529 1057 524 1029 529 1042 b 471 1103 529 1083 503 1103 b 413 1064 447 1103 425 1092 z "},"˙":{"ha":249,"x_min":0,"x_max":0,"o":"m 56 917 b 125 847 56 878 88 847 b 193 917 163 847 193 878 b 125 986 193 956 163 986 b 56 917 88 986 56 956 z "},"÷":{"ha":674,"x_min":0,"x_max":0,"o":"m 56 449 l 56 388 l 618 388 l 618 449 z m 333 681 b 264 613 294 681 264 651 b 333 543 264 574 294 543 b 401 613 371 543 401 574 b 333 681 401 651 371 681 z m 333 282 b 264 214 294 282 264 251 b 333 146 264 175 294 146 b 401 214 371 146 401 175 b 333 282 401 251 371 282 z "},"±":{"ha":674,"x_min":0,"x_max":0,"o":"m 306 460 l 306 197 l 368 197 l 368 460 l 618 460 l 618 522 l 368 522 l 368 760 l 306 760 l 306 522 l 56 522 l 56 460 z m 618 93 l 618 156 l 56 156 l 56 93 z "},"_":{"ha":717,"x_min":0,"x_max":0,"o":"m 661 1 l 661 56 l 56 56 l 56 1 z "},"á":{"ha":693,"x_min":0,"x_max":0,"o":"m 503 475 b 14 172 357 368 14 381 b 226 -3 14 61 103 -3 b 508 111 332 -3 431 39 l 511 113 l 511 7 b 517 0 511 3 513 0 l 631 0 b 638 7 635 0 638 3 l 638 425 b 542 694 638 514 635 646 b 342 726 485 726 404 736 b 100 619 250 714 169 678 b 97 614 99 618 97 615 l 97 550 b 110 546 97 543 106 540 b 383 676 165 631 282 696 b 506 481 478 658 501 565 b 503 475 506 479 504 476 z m 157 175 b 497 428 157 342 360 346 b 507 422 501 432 507 428 l 507 171 b 506 167 507 169 507 168 b 286 49 443 83 364 49 b 157 175 207 49 157 92 z m 238 844 l 274 844 l 438 1017 b 456 1057 450 1029 456 1042 b 397 1103 456 1083 429 1103 b 339 1064 374 1103 351 1092 z "},"à":{"ha":693,"x_min":0,"x_max":0,"o":"m 503 475 b 14 172 357 368 14 381 b 226 -3 14 61 103 -3 b 508 111 332 -3 431 39 l 511 113 l 511 7 b 517 0 511 3 513 0 l 631 0 b 638 7 635 0 638 3 l 638 425 b 542 694 638 514 635 646 b 342 726 485 726 404 736 b 100 619 250 714 169 678 b 97 614 99 618 97 615 l 97 550 b 110 546 97 543 106 540 b 383 676 165 631 282 696 b 506 481 478 658 501 565 b 503 475 506 479 504 476 z m 157 175 b 497 428 157 342 360 346 b 507 422 501 432 507 428 l 507 171 b 506 167 507 169 507 168 b 286 49 443 83 364 49 b 157 175 207 49 157 92 z m 240 1057 b 257 1017 240 1042 246 1029 l 421 844 l 457 844 l 356 1064 b 297 1103 343 1093 319 1103 b 240 1057 268 1103 240 1083 z "},"â":{"ha":693,"x_min":0,"x_max":0,"o":"m 503 475 b 14 172 357 368 14 381 b 226 -3 14 61 103 -3 b 508 111 332 -3 431 39 l 511 113 l 511 7 b 517 0 511 3 513 0 l 631 0 b 638 7 635 0 638 3 l 638 425 b 542 694 638 514 635 646 b 342 726 485 726 404 736 b 100 619 250 714 169 678 b 97 614 99 618 97 615 l 97 550 b 110 546 97 543 106 540 b 383 676 165 631 282 696 b 506 481 478 658 501 565 b 503 475 506 479 504 476 z m 157 175 b 497 428 157 342 360 346 b 507 422 501 432 507 428 l 507 171 b 506 167 507 169 507 168 b 286 49 443 83 364 49 b 157 175 207 49 157 92 z m 188 844 l 222 844 l 347 1006 l 471 844 l 506 844 l 400 1071 b 346 1103 390 1089 374 1103 b 293 1071 321 1103 303 1092 z "},"ä":{"ha":693,"x_min":0,"x_max":0,"o":"m 503 475 b 14 172 357 368 14 381 b 226 -3 14 61 103 -3 b 508 111 332 -3 431 39 l 511 113 l 511 7 b 517 0 511 3 513 0 l 631 0 b 638 7 635 0 638 3 l 638 425 b 542 694 638 514 635 646 b 342 726 485 726 404 736 b 100 619 250 714 169 678 b 97 614 99 618 97 615 l 97 550 b 110 546 97 543 106 540 b 383 676 165 631 282 696 b 506 481 478 658 501 565 b 503 475 506 479 504 476 z m 157 175 b 497 428 157 342 360 346 b 507 422 501 432 507 428 l 507 171 b 506 167 507 169 507 168 b 286 49 443 83 364 49 b 157 175 207 49 157 92 z m 176 918 b 250 844 176 875 207 844 b 324 918 290 844 324 875 b 246 992 324 961 289 992 b 176 918 206 992 176 957 z m 368 918 b 442 844 368 875 401 844 b 515 918 482 844 515 875 b 442 990 515 958 482 990 b 368 918 401 990 368 958 z "},"ã":{"ha":693,"x_min":0,"x_max":0,"o":"m 503 475 b 14 172 357 368 14 381 b 226 -3 14 61 103 -3 b 508 111 332 -3 431 39 l 511 113 l 511 7 b 517 0 511 3 513 0 l 631 0 b 638 7 635 0 638 3 l 638 425 b 542 694 638 514 635 646 b 342 726 485 726 404 736 b 100 619 250 714 169 678 b 97 614 99 618 97 615 l 97 550 b 110 546 97 543 106 540 b 383 676 165 631 282 696 b 506 481 478 658 501 565 b 503 475 506 479 504 476 z m 157 175 b 497 428 157 342 360 346 b 507 422 501 432 507 428 l 507 171 b 506 167 507 169 507 168 b 286 49 443 83 364 49 b 157 175 207 49 157 92 z m 165 857 b 210 903 165 892 182 903 b 471 844 272 903 389 844 b 561 957 522 844 561 869 l 528 957 b 482 913 528 924 510 913 b 222 971 419 913 303 971 b 131 857 168 971 131 946 z "},"å":{"ha":693,"x_min":0,"x_max":0,"o":"m 503 475 b 14 172 357 368 14 381 b 226 -3 14 61 103 -3 b 508 111 332 -3 431 39 l 511 113 l 511 7 b 517 0 511 3 513 0 l 631 0 b 638 7 635 0 638 3 l 638 425 b 542 694 638 514 635 646 b 342 726 485 726 404 736 b 100 619 250 714 169 678 b 97 614 99 618 97 615 l 97 550 b 110 546 97 543 106 540 b 383 676 165 631 282 696 b 506 481 478 658 501 565 b 503 475 506 479 504 476 z m 157 175 b 497 428 157 342 360 346 b 507 422 501 432 507 428 l 507 171 b 506 167 507 169 507 168 b 286 49 443 83 364 49 b 157 175 207 49 157 92 z m 161 876 b 347 692 161 775 243 692 b 532 876 449 692 532 775 b 347 1063 532 981 449 1063 b 161 876 243 1063 161 981 z m 347 742 b 214 876 274 742 214 803 b 347 1010 214 950 274 1010 b 479 876 421 1010 479 950 b 347 742 479 803 421 742 z "},"ç":{"ha":685,"x_min":0,"x_max":0,"o":"m 390 715 b 14 353 183 719 14 560 b 397 -7 14 131 197 -7 b 429 -6 408 -7 419 -6 b 517 10 461 -1 489 0 b 583 33 540 15 561 24 b 681 99 600 42 674 83 b 672 113 682 103 679 107 b 665 114 671 114 668 115 b 479 61 606 76 540 61 b 142 390 297 61 142 197 b 406 669 142 551 235 669 b 656 510 528 669 613 610 b 664 507 657 506 660 506 l 676 515 b 679 522 679 517 681 518 b 390 715 642 651 518 715 z m 226 -219 b 336 -268 254 -253 297 -268 b 458 -160 401 -268 458 -231 b 347 -53 458 -121 431 -79 l 383 22 l 340 22 l 283 -96 b 379 -178 350 -106 379 -143 b 318 -233 379 -210 357 -233 b 236 -203 296 -233 268 -225 z "},"é":{"ha":742,"x_min":0,"x_max":0,"o":"m 14 353 b 397 -7 14 131 197 -7 b 679 96 503 -7 601 28 b 679 106 681 100 681 104 l 672 113 b 665 114 671 114 668 115 b 483 63 606 76 543 63 b 146 338 322 63 172 175 b 151 344 144 342 146 344 l 721 344 b 728 351 725 344 728 347 l 728 358 b 382 715 724 568 579 715 b 14 353 194 715 14 579 z m 142 393 b 393 669 142 546 229 669 b 608 392 550 669 635 526 b 603 386 608 388 607 386 l 147 386 b 142 393 143 386 142 389 z m 261 844 l 297 844 l 461 1017 b 479 1057 474 1029 479 1042 b 421 1103 479 1083 453 1103 b 363 1064 397 1103 375 1092 z "},"è":{"ha":742,"x_min":0,"x_max":0,"o":"m 14 353 b 397 -7 14 131 197 -7 b 679 96 503 -7 601 28 b 679 106 681 100 681 104 l 672 113 b 665 114 671 114 668 115 b 483 63 606 76 543 63 b 146 338 322 63 172 175 b 151 344 144 342 146 344 l 721 344 b 728 351 725 344 728 347 l 728 358 b 382 715 724 568 579 715 b 14 353 194 715 14 579 z m 142 393 b 393 669 142 546 229 669 b 608 392 550 669 635 526 b 603 386 608 388 607 386 l 147 386 b 142 393 143 386 142 389 z m 263 1057 b 279 1017 263 1042 268 1029 l 443 844 l 479 844 l 378 1064 b 319 1103 365 1093 342 1103 b 263 1057 290 1103 263 1083 z "},"ê":{"ha":742,"x_min":0,"x_max":0,"o":"m 14 353 b 397 -7 14 131 197 -7 b 679 96 503 -7 601 28 b 679 106 681 100 681 104 l 672 113 b 665 114 671 114 668 115 b 483 63 606 76 543 63 b 146 338 322 63 172 175 b 151 344 144 342 146 344 l 721 344 b 728 351 725 344 728 347 l 728 358 b 382 715 724 568 579 715 b 14 353 194 715 14 579 z m 142 393 b 393 669 142 546 229 669 b 608 392 550 669 635 526 b 603 386 608 388 607 386 l 147 386 b 142 393 143 386 142 389 z m 211 844 l 246 844 l 371 1006 l 494 844 l 529 844 l 424 1071 b 369 1103 414 1089 397 1103 b 317 1071 344 1103 326 1092 z "},"ë":{"ha":742,"x_min":0,"x_max":0,"o":"m 14 353 b 397 -7 14 131 197 -7 b 679 96 503 -7 601 28 b 679 106 681 100 681 104 l 672 113 b 665 114 671 114 668 115 b 483 63 606 76 543 63 b 146 338 322 63 172 175 b 151 344 144 342 146 344 l 721 344 b 728 351 725 344 728 347 l 728 358 b 382 715 724 568 579 715 b 14 353 194 715 14 579 z m 142 393 b 393 669 142 546 229 669 b 608 392 550 669 635 526 b 603 386 608 388 607 386 l 147 386 b 142 393 143 386 142 389 z m 201 918 b 275 844 201 875 232 844 b 349 918 315 844 349 875 b 271 992 349 961 314 992 b 201 918 231 992 201 957 z m 393 918 b 467 844 393 875 426 844 b 540 918 507 844 540 875 b 467 990 540 958 507 990 b 393 918 426 990 393 958 z "},"í":{"ha":271,"x_min":0,"x_max":0,"o":"m 68 701 b 69 6 68 519 69 132 b 75 0 69 1 71 0 l 194 0 b 201 6 199 0 201 1 l 201 701 b 194 708 201 706 199 708 l 74 708 b 68 701 69 708 68 706 z m 26 844 l 63 844 l 226 1017 b 244 1057 239 1029 244 1042 b 186 1103 244 1083 218 1103 b 128 1064 163 1103 140 1092 z "},"ì":{"ha":271,"x_min":0,"x_max":0,"o":"m 68 701 b 69 6 68 519 69 132 b 75 0 69 1 71 0 l 194 0 b 201 6 199 0 201 1 l 201 701 b 194 708 201 706 199 708 l 74 708 b 68 701 69 708 68 706 z m 28 1057 b 44 1017 28 1042 33 1029 l 208 844 l 244 844 l 143 1064 b 85 1103 131 1093 107 1103 b 28 1057 56 1103 28 1083 z "},"î":{"ha":271,"x_min":0,"x_max":0,"o":"m 68 701 b 69 6 68 519 69 132 b 75 0 69 1 71 0 l 194 0 b 201 6 199 0 201 1 l 201 701 b 194 708 201 706 199 708 l 74 708 b 68 701 69 708 68 706 z m -24 844 l 11 844 l 136 1006 l 260 844 l 294 844 l 189 1071 b 135 1103 179 1089 163 1103 b 82 1071 110 1103 92 1092 z "},"ï":{"ha":271,"x_min":0,"x_max":0,"o":"m 68 701 b 69 6 68 519 69 132 b 75 0 69 1 71 0 l 194 0 b 201 6 199 0 201 1 l 201 701 b 194 708 201 706 199 708 l 74 708 b 68 701 69 708 68 706 z m -33 918 b 40 844 -33 875 -3 844 b 114 918 81 844 114 875 b 36 992 114 961 79 992 b -33 918 -4 992 -33 957 z m 158 918 b 232 844 158 875 192 844 b 306 918 272 844 306 875 b 232 990 306 958 272 990 b 158 918 192 990 158 958 z "},"ñ":{"ha":750,"x_min":0,"x_max":0,"o":"m 57 703 b 56 7 57 596 56 201 b 63 0 56 3 58 0 l 181 0 b 188 7 185 0 188 3 l 188 540 b 189 544 188 542 188 543 b 417 646 249 607 343 646 b 563 410 560 646 563 521 l 563 7 b 568 0 563 3 564 0 l 688 0 b 694 7 692 0 694 3 l 694 418 b 481 708 694 633 649 708 b 197 610 386 708 276 669 b 188 615 193 606 188 610 l 188 703 b 181 708 188 707 185 708 l 64 708 b 57 703 60 708 57 707 z m 194 857 b 239 903 194 892 211 903 b 500 844 301 903 418 844 b 590 957 551 844 590 869 l 557 957 b 511 913 557 924 539 913 b 251 971 449 913 332 971 b 160 857 197 971 160 946 z "},"ó":{"ha":818,"x_min":0,"x_max":0,"o":"m 14 353 b 410 -7 14 136 196 -7 b 804 353 621 -7 804 136 b 410 715 804 568 621 715 b 14 353 196 715 14 568 z m 410 24 b 147 403 232 35 136 210 b 417 694 158 569 257 706 b 672 311 589 683 683 504 b 410 24 661 144 564 13 z m 300 844 l 336 844 l 500 1017 b 518 1057 513 1029 518 1042 b 460 1103 518 1083 492 1103 b 401 1064 436 1103 414 1092 z "},"ò":{"ha":818,"x_min":0,"x_max":0,"o":"m 14 353 b 410 -7 14 136 196 -7 b 804 353 621 -7 804 136 b 410 715 804 568 621 715 b 14 353 196 715 14 568 z m 410 24 b 147 403 232 35 136 210 b 417 694 158 569 257 706 b 672 311 589 683 683 504 b 410 24 661 144 564 13 z m 300 1057 b 317 1017 300 1042 306 1029 l 481 844 l 517 844 l 415 1064 b 357 1103 403 1093 379 1103 b 300 1057 328 1103 300 1083 z "},"ô":{"ha":818,"x_min":0,"x_max":0,"o":"m 14 353 b 410 -7 14 136 196 -7 b 804 353 621 -7 804 136 b 410 715 804 568 621 715 b 14 353 196 715 14 568 z m 410 24 b 147 403 232 35 136 210 b 417 694 158 569 257 706 b 672 311 589 683 683 504 b 410 24 661 144 564 13 z m 250 844 l 285 844 l 410 1006 l 533 844 l 568 844 l 463 1071 b 408 1103 453 1089 436 1103 b 356 1071 383 1103 365 1092 z "},"ö":{"ha":818,"x_min":0,"x_max":0,"o":"m 14 353 b 410 -7 14 136 196 -7 b 804 353 621 -7 804 136 b 410 715 804 568 621 715 b 14 353 196 715 14 568 z m 410 24 b 147 403 232 35 136 210 b 417 694 158 569 257 706 b 672 311 589 683 683 504 b 410 24 661 144 564 13 z m 239 918 b 313 844 239 875 269 844 b 386 918 353 844 386 875 b 308 992 386 961 351 992 b 239 918 268 992 239 957 z m 431 918 b 504 844 431 875 464 844 b 578 918 544 844 578 875 b 504 990 578 958 544 990 b 431 918 464 990 431 958 z "},"õ":{"ha":818,"x_min":0,"x_max":0,"o":"m 14 353 b 410 -7 14 136 196 -7 b 804 353 621 -7 804 136 b 410 715 804 568 621 715 b 14 353 196 715 14 568 z m 410 24 b 147 403 232 35 136 210 b 417 694 158 569 257 706 b 672 311 589 683 683 504 b 410 24 661 144 564 13 z m 228 857 b 272 903 228 892 244 903 b 533 844 335 903 451 844 b 624 957 585 844 624 869 l 590 957 b 544 913 590 924 572 913 b 285 971 482 913 365 971 b 193 857 231 971 193 946 z "},"ú":{"ha":750,"x_min":0,"x_max":0,"o":"m 63 708 b 56 703 58 708 56 707 l 56 281 b 271 0 56 67 100 0 b 553 100 365 0 474 40 b 563 94 557 104 563 100 l 563 7 b 568 0 563 3 564 0 l 688 0 b 694 7 692 0 694 3 l 694 703 b 688 708 694 707 692 708 l 568 708 b 563 703 564 708 563 707 l 563 169 b 561 165 563 168 563 167 b 335 61 501 101 406 61 b 239 96 292 61 260 72 b 188 292 200 133 188 186 l 188 703 b 182 708 188 707 186 708 z m 265 844 l 301 844 l 465 1017 b 483 1057 478 1029 483 1042 b 425 1103 483 1083 457 1103 b 367 1064 401 1103 379 1092 z "},"ù":{"ha":750,"x_min":0,"x_max":0,"o":"m 63 708 b 56 703 58 708 56 707 l 56 281 b 271 0 56 67 100 0 b 553 100 365 0 474 40 b 563 94 557 104 563 100 l 563 7 b 568 0 563 3 564 0 l 688 0 b 694 7 692 0 694 3 l 694 703 b 688 708 694 707 692 708 l 568 708 b 563 703 564 708 563 707 l 563 169 b 561 165 563 168 563 167 b 335 61 501 101 406 61 b 239 96 292 61 260 72 b 188 292 200 133 188 186 l 188 703 b 182 708 188 707 186 708 z m 267 1057 b 283 1017 267 1042 272 1029 l 447 844 l 483 844 l 382 1064 b 324 1103 369 1093 346 1103 b 267 1057 294 1103 267 1083 z "},"û":{"ha":750,"x_min":0,"x_max":0,"o":"m 63 708 b 56 703 58 708 56 707 l 56 281 b 271 0 56 67 100 0 b 553 100 365 0 474 40 b 563 94 557 104 563 100 l 563 7 b 568 0 563 3 564 0 l 688 0 b 694 7 692 0 694 3 l 694 703 b 688 708 694 707 692 708 l 568 708 b 563 703 564 708 563 707 l 563 169 b 561 165 563 168 563 167 b 335 61 501 101 406 61 b 239 96 292 61 260 72 b 188 292 200 133 188 186 l 188 703 b 182 708 188 707 186 708 z m 215 844 l 250 844 l 375 1006 l 499 844 l 533 844 l 428 1071 b 374 1103 418 1089 401 1103 b 321 1071 349 1103 331 1092 z "},"ü":{"ha":750,"x_min":0,"x_max":0,"o":"m 63 708 b 56 703 58 708 56 707 l 56 281 b 271 0 56 67 100 0 b 553 100 365 0 474 40 b 563 94 557 104 563 100 l 563 7 b 568 0 563 3 564 0 l 688 0 b 694 7 692 0 694 3 l 694 703 b 688 708 694 707 692 708 l 568 708 b 563 703 564 708 563 707 l 563 169 b 561 165 563 168 563 167 b 335 61 501 101 406 61 b 239 96 292 61 260 72 b 188 292 200 133 188 186 l 188 703 b 182 708 188 707 186 708 z m 206 918 b 279 844 206 875 236 844 b 353 918 319 844 353 875 b 275 992 353 961 318 992 b 206 918 235 992 206 957 z m 397 918 b 471 844 397 875 431 844 b 544 918 511 844 544 875 b 471 990 544 958 511 990 b 397 918 431 990 397 958 z "},"†":{"ha":442,"x_min":0,"x_max":0,"o":"m 247 -147 l 247 906 l 193 906 l 193 -147 z m 429 392 l 429 446 l 14 446 l 14 392 z "},"Ä":{"ha":818,"x_min":0,"x_max":0,"o":"m 4 8 b 10 0 3 3 4 0 l 50 0 b 56 4 54 0 56 1 l 200 413 b 207 417 201 415 203 417 l 525 417 b 532 413 528 417 531 415 b 672 4 543 379 628 129 b 678 0 672 1 674 0 l 808 0 b 814 8 813 0 815 3 b 636 518 781 101 707 314 l 481 968 b 474 972 479 971 476 972 l 350 972 b 344 968 346 972 344 971 l 300 842 b 176 493 257 718 215 604 z m 229 465 b 224 474 224 465 222 468 l 361 864 b 374 864 365 869 369 869 l 508 474 b 503 465 510 468 507 465 z m 239 1179 b 313 1106 239 1136 269 1106 b 386 1179 353 1106 386 1136 b 308 1253 386 1222 351 1253 b 239 1179 268 1253 239 1218 z m 431 1179 b 504 1106 431 1136 464 1106 b 578 1179 544 1106 578 1136 b 504 1251 578 1219 544 1251 b 431 1179 464 1251 431 1219 z "},"Å":{"ha":818,"x_min":0,"x_max":0,"o":"m 4 8 b 10 0 3 3 4 0 l 50 0 b 56 4 54 0 56 1 l 200 413 b 207 417 201 415 203 417 l 525 417 b 532 413 528 417 531 415 b 672 4 543 379 628 129 b 678 0 672 1 674 0 l 808 0 b 814 8 813 0 815 3 b 636 518 781 101 707 314 l 481 968 b 474 972 479 971 476 972 l 350 972 b 344 968 346 972 344 971 l 300 842 b 176 493 257 718 215 604 z m 229 465 b 224 474 224 465 222 468 l 361 864 b 374 864 365 869 369 869 l 508 474 b 503 465 510 468 507 465 z m 224 1138 b 410 953 224 1036 306 953 b 594 1138 511 953 594 1036 b 410 1324 594 1242 511 1324 b 224 1138 306 1324 224 1242 z m 410 1003 b 276 1138 336 1003 276 1064 b 410 1271 276 1211 336 1271 b 542 1138 483 1271 542 1211 b 410 1003 542 1064 483 1003 z "},"Ç":{"ha":897,"x_min":0,"x_max":0,"o":"m 226 903 b 14 486 82 808 14 654 b 518 -14 14 192 240 -14 b 893 169 668 -14 804 47 b 892 178 894 172 894 175 l 888 182 b 879 182 883 186 881 186 b 594 57 796 93 694 57 b 153 549 360 57 153 264 b 508 942 153 814 336 942 b 839 758 669 942 774 892 b 846 756 840 756 842 754 l 858 761 b 863 769 863 763 864 765 b 544 985 801 897 689 975 b 226 903 433 992 321 964 z m 332 -219 b 442 -268 360 -253 403 -268 b 564 -160 507 -268 564 -231 b 453 -53 564 -121 536 -79 l 489 22 l 446 22 l 389 -96 b 485 -178 456 -106 485 -143 b 424 -233 485 -210 463 -233 b 342 -203 401 -233 374 -225 z "},"É":{"ha":610,"x_min":0,"x_max":0,"o":"m 56 7 b 63 0 56 3 58 0 l 601 0 b 608 7 606 0 608 3 l 608 44 b 601 50 608 49 606 50 l 197 50 b 190 57 193 50 190 53 l 190 472 b 197 478 190 476 193 478 l 515 478 b 522 485 519 478 522 481 l 522 522 b 515 528 522 526 519 528 l 196 528 b 190 535 192 528 190 531 l 190 915 b 196 922 190 919 192 922 l 601 922 b 608 928 606 922 608 924 l 608 965 b 601 972 608 969 606 972 l 63 972 b 56 965 58 972 56 969 z m 196 1106 l 232 1106 l 396 1278 b 414 1318 408 1290 414 1303 b 356 1364 414 1344 388 1364 b 297 1325 332 1364 310 1353 z "},"Ñ":{"ha":856,"x_min":0,"x_max":0,"o":"m 56 18 b 74 0 56 6 61 0 l 88 0 b 106 18 100 0 106 6 l 106 807 b 124 825 106 819 111 825 b 138 818 128 825 133 822 l 725 7 b 740 0 728 3 733 0 l 782 0 b 800 18 794 0 800 6 l 800 954 b 782 972 800 967 794 972 l 768 972 b 750 954 756 972 750 967 l 750 260 b 732 242 750 247 744 242 b 718 249 728 242 722 244 l 199 965 b 183 972 194 969 189 972 l 74 972 b 56 954 61 972 56 967 z m 247 1118 b 292 1164 247 1153 264 1164 b 553 1106 354 1164 471 1106 b 643 1218 604 1106 643 1131 l 610 1218 b 564 1174 610 1185 592 1174 b 304 1232 501 1174 385 1232 b 213 1118 250 1232 213 1207 z "},"Ö":{"ha":1064,"x_min":0,"x_max":0,"o":"m 18 513 b 514 -14 7 219 208 -3 b 1046 472 821 -25 1035 178 b 551 999 1057 768 856 988 b 18 513 242 1010 29 801 z m 510 25 b 164 585 254 54 131 322 b 546 953 193 838 357 971 b 890 389 800 926 913 694 b 510 25 875 136 697 3 z m 363 1179 b 436 1106 363 1136 393 1106 b 510 1179 476 1106 510 1136 b 432 1253 510 1222 475 1253 b 363 1179 392 1253 363 1218 z m 554 1179 b 628 1106 554 1136 588 1106 b 701 1179 668 1106 701 1136 b 628 1251 701 1219 668 1251 b 554 1179 588 1251 554 1219 z "},"Ü":{"ha":832,"x_min":0,"x_max":0,"o":"m 63 972 b 56 965 58 972 56 969 l 56 393 b 425 -14 56 108 231 -14 b 776 388 629 -14 776 115 l 776 965 b 769 972 776 969 774 972 l 732 972 b 726 965 728 972 726 969 l 726 376 b 453 35 726 149 610 35 b 190 375 304 35 190 131 l 190 965 b 185 972 190 969 189 972 z m 246 1179 b 319 1106 246 1136 276 1106 b 393 1179 360 1106 393 1136 b 315 1253 393 1222 358 1253 b 246 1179 275 1253 246 1218 z m 438 1179 b 511 1106 438 1136 471 1106 b 585 1179 551 1106 585 1136 b 511 1251 585 1219 551 1251 b 438 1179 471 1251 438 1219 z "},"Æ":{"ha":1428,"x_min":0,"x_max":0,"o":"m 4 8 b 10 0 3 3 4 0 l 50 0 b 56 4 54 0 56 1 l 200 413 b 207 417 201 415 203 417 l 525 417 b 532 413 528 417 531 415 b 672 4 543 379 628 129 b 678 0 672 1 674 0 l 808 0 b 814 8 813 0 815 3 b 636 518 781 101 707 314 l 481 968 b 474 972 479 971 476 972 l 350 972 b 344 968 346 972 344 971 l 300 842 b 176 493 257 718 215 604 z m 229 465 b 224 474 224 465 222 468 l 361 864 b 374 864 365 869 369 869 l 508 474 b 503 465 510 468 507 465 z m 874 7 b 881 0 874 3 876 0 l 1419 0 b 1426 7 1424 0 1426 3 l 1426 44 b 1419 50 1426 49 1424 50 l 1015 50 b 1008 57 1011 50 1008 53 l 1008 472 b 1015 478 1008 476 1011 478 l 1333 478 b 1340 485 1338 478 1340 481 l 1340 522 b 1333 528 1340 526 1338 528 l 1014 528 b 1008 535 1010 528 1008 531 l 1008 915 b 1014 922 1008 919 1010 922 l 1419 922 b 1426 928 1424 922 1426 924 l 1426 965 b 1419 972 1426 969 1424 972 l 881 972 b 874 965 876 972 874 969 z "},"æ":{"ha":1435,"x_min":0,"x_max":0,"o":"m 503 475 b 14 172 357 368 14 381 b 226 -3 14 61 103 -3 b 508 111 332 -3 431 39 l 511 113 l 511 7 b 517 0 511 3 513 0 l 631 0 b 638 7 635 0 638 3 l 638 425 b 542 694 638 514 635 646 b 342 726 485 726 404 736 b 100 619 250 714 169 678 b 97 614 99 618 97 615 l 97 550 b 110 546 97 543 106 540 b 383 676 165 631 282 696 b 506 481 478 658 501 565 b 503 475 506 479 504 476 z m 157 175 b 497 428 157 342 360 346 b 507 422 501 432 507 428 l 507 171 b 506 167 507 169 507 168 b 286 49 443 83 364 49 b 157 175 207 49 157 92 z m 707 353 b 1090 -7 707 131 890 -7 b 1372 96 1196 -7 1294 28 b 1372 106 1374 100 1374 104 l 1365 113 b 1358 114 1364 114 1361 115 b 1176 63 1299 76 1236 63 b 839 338 1015 63 865 175 b 844 344 838 342 839 344 l 1414 344 b 1421 351 1418 344 1421 347 l 1421 358 b 1075 715 1417 568 1272 715 b 707 353 888 715 707 579 z m 835 393 b 1086 669 835 546 922 669 b 1301 392 1243 669 1328 526 b 1296 386 1301 388 1300 386 l 840 386 b 835 393 836 386 835 389 z "},"À":{"ha":818,"x_min":0,"x_max":0,"o":"m 4 8 b 10 0 3 3 4 0 l 50 0 b 56 4 54 0 56 1 l 200 413 b 207 417 201 415 203 417 l 525 417 b 532 413 528 417 531 415 b 672 4 543 379 628 129 b 678 0 672 1 674 0 l 808 0 b 814 8 813 0 815 3 b 636 518 781 101 707 314 l 481 968 b 474 972 479 971 476 972 l 350 972 b 344 968 346 972 344 971 l 300 842 b 176 493 257 718 215 604 z m 229 465 b 224 474 224 465 222 468 l 361 864 b 374 864 365 869 369 869 l 508 474 b 503 465 510 468 507 465 z m 300 1318 b 317 1278 300 1303 306 1290 l 481 1106 l 517 1106 l 415 1325 b 357 1364 403 1354 379 1364 b 300 1318 328 1364 300 1344 z "},"Ã":{"ha":818,"x_min":0,"x_max":0,"o":"m 4 8 b 10 0 3 3 4 0 l 50 0 b 56 4 54 0 56 1 l 200 413 b 207 417 201 415 203 417 l 525 417 b 532 413 528 417 531 415 b 672 4 543 379 628 129 b 678 0 672 1 674 0 l 808 0 b 814 8 813 0 815 3 b 636 518 781 101 707 314 l 481 968 b 474 972 479 971 476 972 l 350 972 b 344 968 346 972 344 971 l 300 842 b 176 493 257 718 215 604 z m 229 465 b 224 474 224 465 222 468 l 361 864 b 374 864 365 869 369 869 l 508 474 b 503 465 510 468 507 465 z m 228 1118 b 272 1164 228 1153 244 1164 b 533 1106 335 1164 451 1106 b 624 1218 585 1106 624 1131 l 590 1218 b 544 1174 590 1185 572 1174 b 285 1232 482 1174 365 1232 b 193 1118 231 1232 193 1207 z "},"Õ":{"ha":1064,"x_min":0,"x_max":0,"o":"m 18 513 b 514 -14 7 219 208 -3 b 1046 472 821 -25 1035 178 b 551 999 1057 768 856 988 b 18 513 242 1010 29 801 z m 510 25 b 164 585 254 54 131 322 b 546 953 193 838 357 971 b 890 389 800 926 913 694 b 510 25 875 136 697 3 z m 351 1118 b 396 1164 351 1153 368 1164 b 657 1106 458 1164 575 1106 b 747 1218 708 1106 747 1131 l 714 1218 b 668 1174 714 1185 696 1174 b 408 1232 606 1174 489 1232 b 317 1118 354 1232 317 1207 z "},"Œ":{"ha":1674,"x_min":0,"x_max":0,"o":"m 18 513 b 514 -14 7 219 208 -3 b 1046 472 821 -25 1035 178 b 551 999 1057 768 856 988 b 18 513 242 1010 29 801 z m 510 25 b 164 585 254 54 131 322 b 546 953 193 838 357 971 b 890 389 800 926 913 694 b 510 25 875 136 697 3 z m 1119 7 b 1126 0 1119 3 1122 0 l 1665 0 b 1672 7 1669 0 1672 3 l 1672 44 b 1665 50 1672 49 1669 50 l 1261 50 b 1254 57 1257 50 1254 53 l 1254 472 b 1261 478 1254 476 1257 478 l 1579 478 b 1586 485 1583 478 1586 481 l 1586 522 b 1579 528 1586 526 1583 528 l 1260 528 b 1254 535 1256 528 1254 531 l 1254 915 b 1260 922 1254 919 1256 922 l 1665 922 b 1672 928 1669 922 1672 924 l 1672 965 b 1665 972 1672 969 1669 972 l 1126 972 b 1119 965 1122 972 1119 969 z "},"œ":{"ha":1560,"x_min":0,"x_max":0,"o":"m 14 353 b 410 -7 14 136 196 -7 b 804 353 621 -7 804 136 b 410 715 804 568 621 715 b 14 353 196 715 14 568 z m 410 24 b 147 403 232 35 136 210 b 417 694 158 569 257 706 b 672 311 589 683 683 504 b 410 24 661 144 564 13 z m 832 353 b 1215 -7 832 131 1015 -7 b 1497 96 1321 -7 1419 28 b 1497 106 1499 100 1499 104 l 1490 113 b 1483 114 1489 114 1486 115 b 1301 63 1424 76 1361 63 b 964 338 1140 63 990 175 b 969 344 963 342 964 344 l 1539 344 b 1546 351 1543 344 1546 347 l 1546 358 b 1200 715 1542 568 1397 715 b 832 353 1013 715 832 579 z m 960 393 b 1211 669 960 546 1047 669 b 1426 392 1368 669 1453 526 b 1421 386 1426 388 1425 386 l 965 386 b 960 393 961 386 960 389 z "},"ÿ":{"ha":640,"x_min":0,"x_max":0,"o":"m 11 713 b 4 703 6 713 3 710 l 294 -19 b 294 -24 296 -21 296 -22 b 142 -383 283 -54 179 -297 b 149 -392 140 -389 142 -392 l 201 -392 b 207 -387 203 -392 206 -390 l 636 703 b 631 713 638 710 635 713 l 589 713 b 582 708 588 713 585 711 l 581 703 b 371 168 514 531 397 239 b 360 168 365 161 361 161 l 357 175 b 143 708 324 257 206 558 b 138 713 140 711 139 713 z m 150 918 b 224 844 150 875 181 844 b 297 918 264 844 297 875 b 219 992 297 961 263 992 b 150 918 179 992 150 957 z m 342 918 b 415 844 342 875 375 844 b 489 918 456 844 489 875 b 415 990 489 958 456 990 b 342 918 375 990 342 958 z "},"Ÿ":{"ha":715,"x_min":0,"x_max":0,"o":"m 10 972 b 4 963 6 972 3 969 b 285 450 86 814 274 474 l 285 447 l 285 7 b 292 0 285 3 288 0 l 414 0 b 419 7 418 0 419 3 l 419 454 b 421 457 419 456 419 456 b 711 963 438 479 640 842 b 706 972 715 967 710 972 l 657 972 b 651 969 656 972 653 971 l 403 532 b 392 532 399 528 396 528 l 153 969 b 147 972 153 971 151 972 z m 188 1179 b 261 1106 188 1136 218 1106 b 335 1179 301 1106 335 1136 b 257 1253 335 1222 300 1253 b 188 1179 217 1253 188 1218 z m 379 1179 b 453 1106 379 1136 413 1106 b 526 1179 493 1106 526 1136 b 453 1251 526 1219 493 1251 b 379 1179 413 1251 379 1219 z "},"ﬁ":{"ha":668,"x_min":0,"x_max":0,"o":"m 1 660 b 8 653 1 656 4 653 l 88 653 b 93 647 92 653 93 651 l 93 7 b 100 0 93 3 96 0 l 218 0 b 225 7 222 0 225 3 l 225 647 b 232 653 225 651 228 653 l 389 653 b 396 660 393 653 396 656 l 396 689 b 389 694 396 693 393 694 l 228 694 b 203 771 217 694 203 760 b 279 975 196 840 213 935 b 332 990 297 985 315 990 b 426 940 369 990 400 969 b 438 944 431 936 438 939 l 438 981 b 435 986 438 982 436 985 b 319 1022 394 1010 356 1022 b 93 701 175 1022 97 840 b 88 694 93 697 92 694 l 8 694 b 1 689 4 694 1 693 z m 465 701 b 467 6 465 519 467 132 b 472 0 467 1 468 0 l 592 0 b 599 6 596 0 599 1 l 599 701 b 592 708 599 706 596 708 l 471 708 b 465 701 467 708 465 706 z m 543 1024 b 456 936 490 1031 449 983 b 522 868 460 901 488 874 b 610 956 572 860 617 906 b 543 1024 606 993 578 1019 z "},"ﬂ":{"ha":640,"x_min":0,"x_max":0,"o":"m 1 660 b 8 653 1 656 4 653 l 88 653 b 93 647 92 653 93 651 l 93 7 b 100 0 93 3 96 0 l 218 0 b 225 7 222 0 225 3 l 225 647 b 232 653 225 651 228 653 l 389 653 b 396 660 393 653 396 656 l 396 689 b 389 694 396 693 393 694 l 228 694 b 203 771 217 694 203 760 b 279 975 196 840 213 935 b 332 990 297 985 315 990 b 426 940 369 990 400 969 b 438 944 431 936 438 939 l 438 981 b 435 986 438 982 436 985 b 319 1022 394 1010 356 1022 b 93 701 175 1022 97 840 b 88 694 93 697 92 694 l 8 694 b 1 689 4 694 1 693 z m 453 7 b 460 0 453 3 456 0 l 579 0 b 585 7 583 0 585 3 l 585 1036 b 579 1042 585 1040 583 1042 b 458 1040 558 1042 507 1042 b 453 1035 454 1040 453 1039 z "},"Â":{"ha":818,"x_min":0,"x_max":0,"o":"m 4 8 b 10 0 3 3 4 0 l 50 0 b 56 4 54 0 56 1 l 200 413 b 207 417 201 415 203 417 l 525 417 b 532 413 528 417 531 415 b 672 4 543 379 628 129 b 678 0 672 1 674 0 l 808 0 b 814 8 813 0 815 3 b 636 518 781 101 707 314 l 481 968 b 474 972 479 971 476 972 l 350 972 b 344 968 346 972 344 971 l 300 842 b 176 493 257 718 215 604 z m 229 465 b 224 474 224 465 222 468 l 361 864 b 374 864 365 869 369 869 l 508 474 b 503 465 510 468 507 465 z m 250 1106 l 285 1106 l 410 1267 l 533 1106 l 568 1106 l 463 1332 b 408 1364 453 1350 436 1364 b 356 1332 383 1364 365 1353 z "},"Ê":{"ha":610,"x_min":0,"x_max":0,"o":"m 56 7 b 63 0 56 3 58 0 l 601 0 b 608 7 606 0 608 3 l 608 44 b 601 50 608 49 606 50 l 197 50 b 190 57 193 50 190 53 l 190 472 b 197 478 190 476 193 478 l 515 478 b 522 485 519 478 522 481 l 522 522 b 515 528 522 526 519 528 l 196 528 b 190 535 192 528 190 531 l 190 915 b 196 922 190 919 192 922 l 601 922 b 608 928 606 922 608 924 l 608 965 b 601 972 608 969 606 972 l 63 972 b 56 965 58 972 56 969 z m 146 1106 l 181 1106 l 306 1267 l 429 1106 l 464 1106 l 358 1332 b 304 1364 349 1350 332 1364 b 251 1332 279 1364 261 1353 z "},"Á":{"ha":818,"x_min":0,"x_max":0,"o":"m 4 8 b 10 0 3 3 4 0 l 50 0 b 56 4 54 0 56 1 l 200 413 b 207 417 201 415 203 417 l 525 417 b 532 413 528 417 531 415 b 672 4 543 379 628 129 b 678 0 672 1 674 0 l 808 0 b 814 8 813 0 815 3 b 636 518 781 101 707 314 l 481 968 b 474 972 479 971 476 972 l 350 972 b 344 968 346 972 344 971 l 300 842 b 176 493 257 718 215 604 z m 229 465 b 224 474 224 465 222 468 l 361 864 b 374 864 365 869 369 869 l 508 474 b 503 465 510 468 507 465 z m 300 1106 l 336 1106 l 500 1278 b 518 1318 513 1290 518 1303 b 460 1364 518 1344 492 1364 b 401 1325 436 1364 414 1353 z "},"Ë":{"ha":610,"x_min":0,"x_max":0,"o":"m 56 7 b 63 0 56 3 58 0 l 601 0 b 608 7 606 0 608 3 l 608 44 b 601 50 608 49 606 50 l 197 50 b 190 57 193 50 190 53 l 190 472 b 197 478 190 476 193 478 l 515 478 b 522 485 519 478 522 481 l 522 522 b 515 528 522 526 519 528 l 196 528 b 190 535 192 528 190 531 l 190 915 b 196 922 190 919 192 922 l 601 922 b 608 928 606 922 608 924 l 608 965 b 601 972 608 969 606 972 l 63 972 b 56 965 58 972 56 969 z m 135 1179 b 208 1106 135 1136 165 1106 b 282 1179 249 1106 282 1136 b 204 1253 282 1222 247 1253 b 135 1179 164 1253 135 1218 z m 326 1179 b 400 1106 326 1136 360 1106 b 474 1179 440 1106 474 1136 b 400 1251 474 1219 440 1251 b 326 1179 360 1251 326 1219 z "},"È":{"ha":610,"x_min":0,"x_max":0,"o":"m 56 7 b 63 0 56 3 58 0 l 601 0 b 608 7 606 0 608 3 l 608 44 b 601 50 608 49 606 50 l 197 50 b 190 57 193 50 190 53 l 190 472 b 197 478 190 476 193 478 l 515 478 b 522 485 519 478 522 481 l 522 522 b 515 528 522 526 519 528 l 196 528 b 190 535 192 528 190 531 l 190 915 b 196 922 190 919 192 922 l 601 922 b 608 928 606 922 608 924 l 608 965 b 601 972 608 969 606 972 l 63 972 b 56 965 58 972 56 969 z m 196 1318 b 213 1278 196 1303 201 1290 l 376 1106 l 413 1106 l 311 1325 b 253 1364 299 1354 275 1364 b 196 1318 224 1364 196 1344 z "},"Í":{"ha":246,"x_min":0,"x_max":0,"o":"m 56 0 l 185 0 b 190 7 189 0 190 3 l 190 967 b 183 972 190 971 188 972 l 63 972 b 56 967 58 972 56 971 z m 14 1106 l 50 1106 l 214 1278 b 232 1318 226 1290 232 1303 b 174 1364 232 1344 206 1364 b 115 1325 150 1364 128 1353 z "},"Î":{"ha":246,"x_min":0,"x_max":0,"o":"m 56 0 l 185 0 b 190 7 189 0 190 3 l 190 967 b 183 972 190 971 188 972 l 63 972 b 56 967 58 972 56 971 z m -36 1106 l -1 1106 l 124 1267 l 247 1106 l 282 1106 l 176 1332 b 122 1364 167 1350 150 1364 b 69 1332 97 1364 79 1353 z "},"Ï":{"ha":246,"x_min":0,"x_max":0,"o":"m 56 0 l 185 0 b 190 7 189 0 190 3 l 190 967 b 183 972 190 971 188 972 l 63 972 b 56 967 58 972 56 971 z m -46 1179 b 28 1106 -46 1136 -15 1106 b 101 1179 68 1106 101 1136 b 24 1253 101 1222 67 1253 b -46 1179 -17 1253 -46 1218 z m 146 1179 b 219 1106 146 1136 179 1106 b 293 1179 260 1106 293 1136 b 219 1251 293 1219 260 1251 b 146 1179 179 1251 146 1219 z "},"Ì":{"ha":246,"x_min":0,"x_max":0,"o":"m 56 0 l 185 0 b 190 7 189 0 190 3 l 190 967 b 183 972 190 971 188 972 l 63 972 b 56 967 58 972 56 971 z m 15 1318 b 32 1278 15 1303 21 1290 l 196 1106 l 232 1106 l 131 1325 b 72 1364 118 1354 94 1364 b 15 1318 43 1364 15 1344 z "},"Ó":{"ha":1064,"x_min":0,"x_max":0,"o":"m 18 513 b 514 -14 7 219 208 -3 b 1046 472 821 -25 1035 178 b 551 999 1057 768 856 988 b 18 513 242 1010 29 801 z m 510 25 b 164 585 254 54 131 322 b 546 953 193 838 357 971 b 890 389 800 926 913 694 b 510 25 875 136 697 3 z m 422 1106 l 458 1106 l 622 1278 b 640 1318 635 1290 640 1303 b 582 1364 640 1344 614 1364 b 524 1325 558 1364 536 1353 z "},"Ô":{"ha":1064,"x_min":0,"x_max":0,"o":"m 18 513 b 514 -14 7 219 208 -3 b 1046 472 821 -25 1035 178 b 551 999 1057 768 856 988 b 18 513 242 1010 29 801 z m 510 25 b 164 585 254 54 131 322 b 546 953 193 838 357 971 b 890 389 800 926 913 694 b 510 25 875 136 697 3 z m 372 1106 l 407 1106 l 532 1267 l 656 1106 l 690 1106 l 585 1332 b 531 1364 575 1350 558 1364 b 478 1332 506 1364 488 1353 z "},"Ò":{"ha":1064,"x_min":0,"x_max":0,"o":"m 18 513 b 514 -14 7 219 208 -3 b 1046 472 821 -25 1035 178 b 551 999 1057 768 856 988 b 18 513 242 1010 29 801 z m 510 25 b 164 585 254 54 131 322 b 546 953 193 838 357 971 b 890 389 800 926 913 694 b 510 25 875 136 697 3 z m 424 1318 b 440 1278 424 1303 429 1290 l 604 1106 l 640 1106 l 539 1325 b 481 1364 526 1354 503 1364 b 424 1318 451 1364 424 1344 z "},"Ú":{"ha":832,"x_min":0,"x_max":0,"o":"m 63 972 b 56 965 58 972 56 969 l 56 393 b 425 -14 56 108 231 -14 b 776 388 629 -14 776 115 l 776 965 b 769 972 776 969 774 972 l 732 972 b 726 965 728 972 726 969 l 726 376 b 453 35 726 149 610 35 b 190 375 304 35 190 131 l 190 965 b 185 972 190 969 189 972 z m 307 1106 l 343 1106 l 507 1278 b 525 1318 519 1290 525 1303 b 467 1364 525 1344 499 1364 b 408 1325 443 1364 421 1353 z "},"Û":{"ha":832,"x_min":0,"x_max":0,"o":"m 63 972 b 56 965 58 972 56 969 l 56 393 b 425 -14 56 108 231 -14 b 776 388 629 -14 776 115 l 776 965 b 769 972 776 969 774 972 l 732 972 b 726 965 728 972 726 969 l 726 376 b 453 35 726 149 610 35 b 190 375 304 35 190 131 l 190 965 b 185 972 190 969 189 972 z m 257 1106 l 292 1106 l 417 1267 l 540 1106 l 575 1106 l 469 1332 b 415 1364 460 1350 443 1364 b 363 1332 390 1364 372 1353 z "},"Ù":{"ha":832,"x_min":0,"x_max":0,"o":"m 63 972 b 56 965 58 972 56 969 l 56 393 b 425 -14 56 108 231 -14 b 776 388 629 -14 776 115 l 776 965 b 769 972 776 969 774 972 l 732 972 b 726 965 728 972 726 969 l 726 376 b 453 35 726 149 610 35 b 190 375 304 35 190 131 l 190 965 b 185 972 190 969 189 972 z m 307 1318 b 324 1278 307 1303 313 1290 l 488 1106 l 524 1106 l 422 1325 b 364 1364 410 1354 386 1364 b 307 1318 335 1364 307 1344 z "},"’":{"ha":250,"x_min":0,"x_max":0,"o":"m 125 847 b 56 779 85 847 56 817 b 106 711 56 747 76 721 b 132 656 122 706 132 682 b 106 574 132 626 124 600 l 110 574 b 194 767 147 611 194 703 b 125 847 194 807 169 847 z "},"‘":{"ha":250,"x_min":0,"x_max":0,"o":"m 125 635 b 194 703 165 635 194 665 b 144 771 194 735 174 761 b 118 826 128 776 118 800 b 144 908 118 856 126 882 l 140 908 b 56 715 103 871 56 779 b 125 635 56 675 81 635 z "},"”":{"ha":442,"x_min":0,"x_max":0,"o":"m 125 847 b 56 779 85 847 56 817 b 106 711 56 747 76 721 b 132 656 122 706 132 682 b 106 574 132 626 124 600 l 110 574 b 194 767 147 611 194 703 b 125 847 194 807 169 847 z m 317 849 b 247 781 276 849 247 818 b 297 713 247 749 268 722 b 324 657 314 707 324 683 b 297 575 324 628 315 601 l 301 575 b 386 768 339 613 386 704 b 317 849 386 808 361 849 z "},"“":{"ha":442,"x_min":0,"x_max":0,"o":"m 317 658 b 386 726 357 658 386 689 b 336 794 386 758 365 785 b 310 850 319 800 310 824 b 336 932 310 879 318 906 l 332 932 b 247 739 294 894 247 803 b 317 658 247 699 272 658 z m 125 657 b 194 725 165 657 194 688 b 144 793 194 757 174 783 b 118 849 128 799 118 822 b 144 931 118 878 126 904 l 140 931 b 56 738 103 893 56 801 b 125 657 56 697 81 657 z "},"P":{"ha":792,"x_min":0,"x_max":0,"o":"m 56 7 b 63 0 56 3 58 0 l 185 0 b 190 7 189 0 190 3 l 190 468 b 199 474 190 472 194 478 b 431 424 272 442 347 424 b 778 714 619 424 778 525 b 406 972 778 925 578 972 l 63 972 b 57 965 58 972 57 969 b 56 7 57 793 56 132 z m 194 504 b 190 510 192 506 190 507 l 190 915 b 197 922 190 919 193 922 l 381 922 b 638 711 551 922 638 851 b 389 465 638 567 551 465 b 194 504 329 465 264 478 z "}}}
